<svg id="Group_17" data-name="Group 17" xmlns="http://www.w3.org/2000/svg" width="18.913" height="18.875" viewBox="0 0 18.913 18.875">
  <path id="Path_65" data-name="Path 65" d="M18.861,9.426c-.028,1.343-.049,2.685-.085,4.028a6.207,6.207,0,0,1-.417,2.148A4.742,4.742,0,0,1,14.416,18.7a21.384,21.384,0,0,1-3.01.177q-3.021.011-6.042-.057a5.759,5.759,0,0,1-2.812-.735A4.75,4.75,0,0,1,.128,14.471a22.923,22.923,0,0,1-.177-3.038C-.062,9.426-.034,7.426.008,5.42A5.689,5.689,0,0,1,.927,2.282,4.984,4.984,0,0,1,4.707.12,25.894,25.894,0,0,1,7.378,0Q10.4,0,13.42.057a5.759,5.759,0,0,1,2.812.735A4.759,4.759,0,0,1,18.649,4.4c.141,1.053.141,2.127.184,3.194.021.608.007,1.215.007,1.83ZM9.385,17.22v-.049c.784,0,1.576.021,2.36-.007A21.257,21.257,0,0,0,14.169,17a3.061,3.061,0,0,0,2.657-2.268,5.476,5.476,0,0,0,.226-1.434q.064-2.544.064-5.088c0-1.074-.028-2.155-.113-3.229a3.283,3.283,0,0,0-1.371-2.551A4,4,0,0,0,13.3,1.752c-2.614-.021-5.222-.014-7.836,0A4.13,4.13,0,0,0,3.329,2.3,3.246,3.246,0,0,0,1.761,4.982c-.085,1.053-.106,2.113-.113,3.173C1.64,9.878,1.669,11.6,1.7,13.32a4.119,4.119,0,0,0,.65,2.311,3.238,3.238,0,0,0,2.579,1.413C6.424,17.156,7.908,17.171,9.385,17.22Z" transform="translate(0.052 0)" fill="#1f2431"/>
  <path id="Path_66" data-name="Path 66" d="M74.514,69.781A4.858,4.858,0,1,1,69.723,64.9,4.848,4.848,0,0,1,74.514,69.781Zm-4.847-3.173A3.144,3.144,0,1,0,72.8,69.774,3.139,3.139,0,0,0,69.667,66.608Z" transform="translate(-60.215 -60.312)" fill="#1f2431"/>
  <path id="Path_67" data-name="Path 67" d="M190.037,46.2a1.138,1.138,0,1,1-1.138,1.138A1.115,1.115,0,0,1,190.037,46.2Z" transform="translate(-175.547 -42.934)" fill="#1f2431"/>
</svg>
