<svg xmlns="http://www.w3.org/2000/svg" width="187.487" height="56.528" viewBox="0 0 187.487 56.528">
  <g id="Group_26" data-name="Group 26" transform="translate(-63.802 -13.802)">
    <g id="Group_1" data-name="Group 1" transform="translate(63.802 13.802)">
      <path id="Path_1" data-name="Path 1" d="M438.328,82.489a28.264,28.264,0,1,1-28.263-28.264,28.264,28.264,0,0,1,28.263,28.264" transform="translate(-381.8 -54.225)" fill="#de293d"/>
      <path id="Path_2" data-name="Path 2" d="M424.734,75.445,422.1,77.933l-3.953-3.468L409.968,75.6l-.459,2.476L405.7,74.465l-7.631.668-.567,25.051L414.523,116.4a28.262,28.262,0,0,0,28.187-28.262q0-.764-.041-1.516l-12.3-12.154Z" transform="translate(-386.181 -59.872)" fill="#c42136"/>
      <path id="Path_3" data-name="Path 3" d="M403.833,76.715a1.394,1.394,0,0,0-.3-.924,1.213,1.213,0,0,0-.983-.361H400.46a1.115,1.115,0,0,0-.963.442,1.794,1.794,0,0,0-.321,1.084v21a1.338,1.338,0,0,0,.321.924,1.223,1.223,0,0,0,.963.362h2.089a1.114,1.114,0,0,0,.963-.443,1.8,1.8,0,0,0,.321-1.084Zm-1-3.333a3.827,3.827,0,0,1,2.609.783,3.251,3.251,0,0,1,.884,2.55V97.833a3.447,3.447,0,0,1-.884,2.63,3.7,3.7,0,0,1-2.609.823H400.22a3.907,3.907,0,0,1-2.63-.784,3.211,3.211,0,0,1-.9-2.55V76.835a3.4,3.4,0,0,1,.9-2.63,3.782,3.782,0,0,1,2.63-.823Z" transform="translate(-385.953 -59.569)" fill="#fff"/>
      <path id="Path_4" data-name="Path 4" d="M422.3,79.123a2.147,2.147,0,0,1-.9-.159c-.227-.107-.342-.2-.342-.281V76.715a1.4,1.4,0,0,0-.3-.924,1.215,1.215,0,0,0-.983-.361h-2.088a1.116,1.116,0,0,0-.964.442,1.8,1.8,0,0,0-.322,1.084v3.373a3.974,3.974,0,0,0,.523,2.028,9.185,9.185,0,0,0,1.325,1.746q.8.843,1.726,1.686a16.328,16.328,0,0,1,1.727,1.847,9.533,9.533,0,0,1,1.325,2.228,7.063,7.063,0,0,1,.522,2.79v5.18a3.449,3.449,0,0,1-.883,2.63,3.7,3.7,0,0,1-2.61.823h-2.61a3.826,3.826,0,0,1-2.609-.784,3.252,3.252,0,0,1-.883-2.55V95.986q0-.12.281-.3a1.87,1.87,0,0,1,.964-.181c.8,0,1.2.16,1.2.481v1.968a1.338,1.338,0,0,0,.322.924,1.279,1.279,0,0,0,1,.362h2.048a1.115,1.115,0,0,0,.963-.443,1.789,1.789,0,0,0,.321-1.084V92.534a3.985,3.985,0,0,0-.521-1.948,11.625,11.625,0,0,0-1.325-1.886q-.8-.943-1.707-1.847T415.8,85a11.38,11.38,0,0,1-1.325-1.886,3.966,3.966,0,0,1-.523-1.948V76.835a3.447,3.447,0,0,1,.883-2.63,3.7,3.7,0,0,1,2.609-.823h2.61a3.83,3.83,0,0,1,2.61.783,3.253,3.253,0,0,1,.883,2.55v1.967c0,.295-.415.441-1.244.441" transform="translate(-390.769 -59.569)" fill="#fff"/>
      <path id="Path_5" data-name="Path 5" d="M439.506,95.224a2.305,2.305,0,0,1,.924.16c.241.108.361.215.361.322v2.248a3.2,3.2,0,0,1-.9,2.57,3.908,3.908,0,0,1-2.589.763h-2.65q-3.493,0-3.493-3.333V76.835a3.445,3.445,0,0,1,.883-2.63,3.7,3.7,0,0,1,2.609-.823h2.65a3.841,3.841,0,0,1,2.589.783,3.208,3.208,0,0,1,.9,2.55v1.927q0,.12-.361.241a2.805,2.805,0,0,1-.883.12,3.255,3.255,0,0,1-.9-.1c-.229-.066-.342-.154-.342-.261V76.715a1.476,1.476,0,0,0-.3-.945,1.178,1.178,0,0,0-.983-.381H434.93q-1.286,0-1.285,1.566v21a1.391,1.391,0,0,0,.3.924,1.214,1.214,0,0,0,.984.362h2.087a1.136,1.136,0,0,0,1.285-1.286V95.705c0-.08.107-.181.321-.3a1.8,1.8,0,0,1,.883-.181" transform="translate(-395.569 -59.569)" fill="#fff"/>
    </g>
    <g id="Group_24" data-name="Group 24" transform="translate(130.277 27.061)">
      <path id="Path_92" data-name="Path 92" d="M585.8,237.747a2.369,2.369,0,0,1-.97.147,1.937,1.937,0,0,1-.947-.169.914.914,0,0,1-.358-.337q0-.043-.38-1.37t-.947-3.286q-.569-1.959-1.2-4.235t-1.2-4.215q-.569-1.937-.948-3.244t-.379-1.349a.284.284,0,0,0-.085-.148c-.029-.013-.043.037-.043.148V237.43c0,.085-.113.184-.337.3a2.249,2.249,0,0,1-.969.169,2.579,2.579,0,0,1-.948-.147c-.239-.1-.358-.218-.358-.359v-28.7a.4.4,0,0,1,.316-.421,4.229,4.229,0,0,1,.99-.084q1.264,0,1.433.338,1.3,4.846,2.4,8.722.463,1.644.906,3.224t.779,2.822q.339,1.243.57,2.023t.232.822a1.509,1.509,0,0,0,.085.211c.027.056.042-.029.042-.254V208.61q0-.421,1.305-.422,1.349,0,1.349.463l-.042,28.779c0,.114-.1.218-.294.318" transform="translate(-465.12 -208.188)" fill="#de293d"/>
      <path id="Path_93" data-name="Path 93" d="M466.556,208.188a3.039,3.039,0,0,1,.779.106c.267.07.386.162.359.273l-4.256,28.99c-.028.14-.162.232-.4.276a4.62,4.62,0,0,1-.779.063,4.509,4.509,0,0,1-.8-.063c-.225-.044-.351-.136-.379-.276l-1.348-9.1q-.253-1.685-.506-3.349t-.441-2.951q-.191-1.284-.3-2.106c-.07-.547-.106-.835-.106-.864-.029-.112-.049-.154-.062-.126a.275.275,0,0,0-.022.126c0,.029-.042.309-.127.843s-.189,1.23-.316,2.086-.274,1.833-.442,2.928-.338,2.219-.506,3.371q-.592,4.046-1.348,9.144c0,.14-.134.232-.4.276a5.129,5.129,0,0,1-.779.063,4.879,4.879,0,0,1-.737-.063c-.267-.044-.4-.136-.4-.276l-4.3-28.99c0-.084.092-.168.274-.251a2.186,2.186,0,0,1,.865-.127c.393,0,.694.008.906.021s.329.092.358.232l2.949,19.887q.085.423.212-.041.758-5.476,1.348-9.818.253-1.854.505-3.624t.442-3.18q.191-1.412.317-2.276c.085-.576.127-.879.127-.906q0-.294,1.011-.295t1.053.295q0,.042.126.928t.316,2.274q.191,1.392.463,3.16t.527,3.624q.632,4.342,1.391,9.859c.027.143.063.206.106.191s.077-.092.106-.232q.253-1.727.463-3.139t.484-3.182q.273-1.771.528-3.623.631-4.339,1.473-9.861c.028-.112.175-.189.443-.23a5.074,5.074,0,0,1,.822-.065" transform="translate(-448.942 -208.188)" fill="#de293d"/>
      <path id="Path_94" data-name="Path 94" d="M481.43,235.734a1.842,1.842,0,0,1,.126.885,2,2,0,0,1-.126.885.357.357,0,0,1-.3.212l-7.416-.044c-.224,0-.336-.1-.336-.295V208.809a.335.335,0,0,1,.379-.38h7.29c.14,0,.252.1.337.295a1.814,1.814,0,0,1,.126.716,2.615,2.615,0,0,1-.1.737c-.072.239-.176.359-.317.359H476.2a.223.223,0,0,0-.253.251v10.619c0,.169.071.252.211.252h4.467c.084,0,.175.065.274.19a2.857,2.857,0,0,1,0,1.812.413.413,0,0,1-.316.19h-4.341c-.2,0-.295.112-.295.337V235.27a.26.26,0,0,0,.295.295h4.846a.4.4,0,0,1,.338.169" transform="translate(-452.061 -208.219)" fill="#de293d"/>
      <path id="Path_95" data-name="Path 95" d="M493.675,225.285a1.152,1.152,0,0,0-1.39-1.308H489c-.2,0-.3.085-.3.253v11.04c0,.2.085.295.253.295h3.33a1.28,1.28,0,0,0,1.117-.4,2.244,2.244,0,0,0,.273-1.243v-8.638Zm-4.762-14.748c-.14,0-.211.084-.211.252v10.788c0,.14.085.21.253.21.057,0,.253.007.591.021s.715.02,1.138.02h1.643a1.162,1.162,0,0,0,1.033-.461,2.221,2.221,0,0,0,.316-1.265v-8.175a1.409,1.409,0,0,0-.359-1.01,1.352,1.352,0,0,0-1.031-.38Zm3.666-2.108a4.022,4.022,0,0,1,2.738.821,3.421,3.421,0,0,1,.927,2.677V220.1a7.716,7.716,0,0,1-.064.969,3.713,3.713,0,0,1-.231.926,1.8,1.8,0,0,1-.442.673.988.988,0,0,1-.7.253,1.134,1.134,0,0,1,1.138.632,3.367,3.367,0,0,1,.295,1.433v9.058a3.693,3.693,0,0,1-.927,2.782,3.824,3.824,0,0,1-2.738.885h-6.236c-.141,0-.211-.085-.211-.254V208.682a.224.224,0,0,1,.253-.253Z" transform="translate(-453.688 -208.219)" fill="#de293d"/>
      <path id="Path_96" data-name="Path 96" d="M517.3,211.926a1.491,1.491,0,0,0-.338-.99,1.25,1.25,0,0,0-1.011-.4h-3.329a.223.223,0,0,0-.252.252v24.4c0,.253.1.379.295.379h3.286a1.17,1.17,0,0,0,1.011-.463,1.956,1.956,0,0,0,.338-1.179Zm-1.1-3.5a4.109,4.109,0,0,1,2.76.821,3.374,3.374,0,0,1,.947,2.677v22.121a3.64,3.64,0,0,1-.947,2.782,3.9,3.9,0,0,1-2.76.885h-5.983a.372.372,0,0,1-.421-.421V208.767a.3.3,0,0,1,.338-.338Z" transform="translate(-456.707 -208.219)" fill="#de293d"/>
      <path id="Path_97" data-name="Path 97" d="M533.3,235.734a1.839,1.839,0,0,1,.126.885,2,2,0,0,1-.126.885.357.357,0,0,1-.295.212l-7.416-.044c-.225,0-.337-.1-.337-.295V208.809a.335.335,0,0,1,.38-.38h7.29q.209,0,.337.295a1.83,1.83,0,0,1,.126.716,2.615,2.615,0,0,1-.1.737c-.072.239-.176.359-.316.359h-4.888a.223.223,0,0,0-.253.251v10.619c0,.169.07.252.211.252H532.5c.085,0,.175.065.274.19a2.841,2.841,0,0,1,0,1.812.413.413,0,0,1-.316.19h-4.34c-.2,0-.295.112-.295.337V235.27a.26.26,0,0,0,.295.295h4.846a.4.4,0,0,1,.337.169" transform="translate(-458.68 -208.219)" fill="#de293d"/>
      <path id="Path_98" data-name="Path 98" d="M546.285,214.456a2.245,2.245,0,0,1-.948-.169c-.238-.111-.358-.21-.358-.295v-2.064a1.456,1.456,0,0,0-.317-.969,1.267,1.267,0,0,0-1.032-.379H541.44a1.168,1.168,0,0,0-1.011.464,1.881,1.881,0,0,0-.338,1.137v3.538a4.181,4.181,0,0,0,.548,2.13,9.692,9.692,0,0,0,1.391,1.833q.843.886,1.812,1.769a17.2,17.2,0,0,1,1.813,1.939,10.027,10.027,0,0,1,1.39,2.337,7.422,7.422,0,0,1,.548,2.929v5.436a3.617,3.617,0,0,1-.927,2.76,3.88,3.88,0,0,1-2.738.865h-2.738a4.011,4.011,0,0,1-2.739-.823,3.411,3.411,0,0,1-.927-2.675v-2.066c0-.085.1-.189.3-.316a1.952,1.952,0,0,1,1.01-.19q1.264,0,1.264.506v2.066a1.4,1.4,0,0,0,.338.968,1.337,1.337,0,0,0,1.053.379h2.149a1.169,1.169,0,0,0,1.012-.463,1.884,1.884,0,0,0,.337-1.138v-5.436a4.175,4.175,0,0,0-.548-2.043,12.106,12.106,0,0,0-1.391-1.98q-.84-.991-1.79-1.938t-1.79-1.938a12.054,12.054,0,0,1-1.39-1.981,4.157,4.157,0,0,1-.549-2.044v-4.55a3.615,3.615,0,0,1,.927-2.759,3.881,3.881,0,0,1,2.739-.865h2.738a4.019,4.019,0,0,1,2.738.821,3.418,3.418,0,0,1,.927,2.676v2.064q0,.465-1.307.464" transform="translate(-460.245 -208.219)" fill="#de293d"/>
      <path id="Path_99" data-name="Path 99" d="M554.277,237.895q-1.348,0-1.349-.38V208.651c0-.111.1-.218.3-.316a2.461,2.461,0,0,1,1.01-.147,2.64,2.64,0,0,1,1.034.147c.21.1.315.205.315.316V237.43q0,.466-1.306.465" transform="translate(-462.211 -208.188)" fill="#de293d"/>
      <path id="Path_100" data-name="Path 100" d="M569.082,214.371a3.306,3.306,0,0,1-.885-.106c-.253-.07-.379-.175-.379-.317v-1.895a2.17,2.17,0,0,0-.253-1.055,1,1,0,0,0-.969-.462h-2.36a1.184,1.184,0,0,0-.99.462,1.877,1.877,0,0,0-.359,1.18v22.038a1.4,1.4,0,0,0,.338.968,1.339,1.339,0,0,0,1.054.379h2.149a1.323,1.323,0,0,0,1.1-.379,1.342,1.342,0,0,0,.295-.843v-7.162c0-.254-.141-.38-.421-.38h-2.781a.358.358,0,0,1-.3-.211,2.147,2.147,0,0,1-.126-.927,2.017,2.017,0,0,1,.126-.885.386.386,0,0,1,.338-.21h4.635c.505,0,.814.155.927.463a2.722,2.722,0,0,1,.167.927v8.091a3.7,3.7,0,0,1-.926,2.781,3.827,3.827,0,0,1-2.739.885h-2.738q-3.667,0-3.667-3.5V212.054a3.769,3.769,0,0,1,.865-2.759,3.844,3.844,0,0,1,2.8-.865h2.738a4.021,4.021,0,0,1,2.739.821,3.42,3.42,0,0,1,.926,2.676v2.021q0,.17-.378.295a2.93,2.93,0,0,1-.928.127" transform="translate(-463.154 -208.219)" fill="#de293d"/>
    </g>
  </g>
</svg>
