<svg xmlns="http://www.w3.org/2000/svg" width="18.858" height="15.398" viewBox="0 0 18.858 15.398">
  <path id="Path_1857" data-name="Path 1857" d="M.015,13.7a7.853,7.853,0,0,0,5.658-1.608A3.907,3.907,0,0,1,2.087,9.406a4.562,4.562,0,0,0,1.678-.088A3.922,3.922,0,0,1,.706,5.487,4.335,4.335,0,0,0,2.4,5.92,3.986,3.986,0,0,1,1.233.728,11.128,11.128,0,0,0,9.26,4.808c-.024-.248-.058-.473-.07-.7a3.732,3.732,0,0,1,1.23-3.035A3.794,3.794,0,0,1,13.87.119a3.571,3.571,0,0,1,1.914,1.033.25.25,0,0,0,.267.076A7.945,7.945,0,0,0,18.219.4c.033-.018.07-.033.139-.064a3.892,3.892,0,0,1-1.611,2.075c0,.012.009.027.012.039.233-.042.466-.079.694-.13s.469-.118.7-.191.454-.161.706-.218c-.173.221-.339.448-.521.666A7.986,7.986,0,0,1,17.044,3.8a.309.309,0,0,0-.088.218A10.829,10.829,0,0,1,16.68,6.8,11.6,11.6,0,0,1,14.6,11.226a10.5,10.5,0,0,1-3.471,2.959,10.6,10.6,0,0,1-3.5,1.124,11.739,11.739,0,0,1-3.274.018,10.548,10.548,0,0,1-3.353-1.036C.675,14.119.339,13.925,0,13.74.006,13.728.009,13.716.015,13.7Z" transform="translate(0 -0.035)" fill="#ccc"/>
</svg>
