<svg xmlns="http://www.w3.org/2000/svg" width="57.328" height="46.604" viewBox="0 0 57.328 46.604">
  <path id="Path_1771" data-name="Path 1771" d="M2.321-69.054c-9.486,6.805-16.7,18.353-16.7,30.932,0,10.1,5.98,15.672,12.785,15.672A10.869,10.869,0,0,0,9.333-33.379c0-6.186-4.124-10.517-9.9-10.517-1.031,0-2.475.206-2.681.206.619-6.6,6.6-14.847,13.2-19.178Zm32.994,0c-9.486,6.805-16.7,18.353-16.7,30.932,0,10.1,5.98,15.672,12.785,15.672A11.047,11.047,0,0,0,42.533-33.379c0-6.186-4.33-10.517-10.1-10.517-1.031,0-2.475.206-2.681.206.825-6.6,6.6-14.847,13.2-19.178Z" transform="translate(14.383 69.054)" fill="#fff" opacity="0.114"/>
</svg>
