<svg xmlns="http://www.w3.org/2000/svg" width="51.029" height="44.669" viewBox="0 0 51.029 44.669">
  <g id="Social_media" data-name="Social media" transform="translate(0 0.75)">
    <g id="Group_1943" data-name="Group 1943" transform="translate(0 0)">
      <path id="Path_3298" data-name="Path 3298" d="M245.888,48.078V42.331a5.438,5.438,0,0,0-5.438-5.438h0a1.54,1.54,0,0,0-1.54,1.539v7.41a7.242,7.242,0,0,1-3.284,6.066l-.548.358" transform="translate(-227.722 -36.893)" fill="none" stroke="#fff" stroke-miterlimit="10" stroke-width="1.5"/>
      <path id="Path_3299" data-name="Path 3299" d="M253.543,73.562a4.174,4.174,0,0,1-3.938,2.789h-14.15" transform="translate(-227.755 -40.027)" fill="none" stroke="#fff" stroke-miterlimit="10" stroke-width="1.5"/>
      <path id="Path_3300" data-name="Path 3300" d="M244.261,51.336h11.291a4.174,4.174,0,0,1,3.937,5.559" transform="translate(-228.507 -38.127)" fill="none" stroke="#fff" stroke-miterlimit="10" stroke-width="1.5"/>
      <path id="Path_3301" data-name="Path 3301" d="M227.035,53.7h4.9V74.654h-4.9" transform="translate(-227.035 -38.33)" fill="none" stroke="#fff" stroke-miterlimit="10" stroke-width="1.5"/>
    </g>
    <path id="Path_3302" data-name="Path 3302" d="M272.051,57.306a7.348,7.348,0,0,0-6.608,4.142,7.348,7.348,0,0,0-13.96,3.212c0,7.042,13.96,16.981,13.96,16.981s13.96-9.65,13.96-16.981A7.353,7.353,0,0,0,272.051,57.306Z" transform="translate(-229.124 -38.638)" fill="none" stroke="#fff" stroke-miterlimit="10" stroke-width="1.5"/>
  </g>
</svg>
