<svg xmlns="http://www.w3.org/2000/svg" width="215.997" height="50.279" viewBox="0 0 215.997 50.279">
  <path id="J.B._Gottstein_Logo" data-name="J.B. Gottstein Logo" d="M-233.993,54.4l.7-.78a3.091,3.091,0,0,0,1.895.617c.688,0,1.162-.143,1.162-.571s-.474-.6-1.207-.6a3.534,3.534,0,0,0-1.395.28l-.948-.357.39-2.4h4.035v.98H-232.4l-.156.979a3.051,3.051,0,0,1,1.609-.421c1.032,0,2.064.486,2.064,1.557,0,.856-.739,1.6-2.512,1.6A3.876,3.876,0,0,1-233.993,54.4Zm-9.031.11.714-.72a2.309,2.309,0,0,0,1.525.532c.876,0,1.538-.3,1.616-1.278a3.013,3.013,0,0,1-1.8.546c-.953,0-2.173-.39-2.173-1.506,0-.948.9-1.648,2.5-1.648,1.739,0,2.817.928,2.817,2.42s-1.078,2.421-2.817,2.421A3.482,3.482,0,0,1-243.024,54.513Zm1.207-2.44c0,.474.474.643,1.123.643a2.574,2.574,0,0,0,1.46-.441,1.268,1.268,0,0,0-1.408-.883C-241.343,51.391-241.817,51.606-241.817,52.072Zm-17.846.785c0-1.532,1.155-2.42,2.92-2.42a2.912,2.912,0,0,1,2.492,1.181l-1.142.584a1.507,1.507,0,0,0-1.369-.688c-.934,0-1.557.474-1.557,1.343s.623,1.343,1.557,1.343a1.536,1.536,0,0,0,1.395-.693l1.135.584a2.956,2.956,0,0,1-2.562,1.188C-258.508,55.279-259.663,54.389-259.663,52.858Zm-14.7,1.532.695-.818a3.326,3.326,0,0,0,2.193.708c.779,0,1.169-.143,1.169-.441s-.364-.39-1.3-.467c-1.349-.118-2.576-.416-2.576-1.428,0-.972,1.052-1.5,2.492-1.5a4.379,4.379,0,0,1,2.492.674l-.669.825a3.113,3.113,0,0,0-1.823-.506c-.532,0-1.174.084-1.174.409,0,.3.525.344,1.337.409,1.486.123,2.538.416,2.538,1.46,0,.934-.864,1.571-2.512,1.571A4.507,4.507,0,0,1-274.361,54.389Zm38.323.739V51.956a3.575,3.575,0,0,1-1.357.467V51.372a3.471,3.471,0,0,0,1.681-.785h1v4.542Zm-9.213,0V51.956a3.57,3.57,0,0,1-1.356.467V51.372a3.476,3.476,0,0,0,1.681-.785h1v4.542Zm-8.322,0V50.587h4.775V51.6h-3.472v.746h2.861v.967h-2.861v.8h3.544v1.012Zm-8.06,0-2.933-2.985v2.985h-1.278V50.587h1.4l2.692,2.777V50.587h1.278v4.542Zm-6.607,0V50.587h1.324v4.542Zm43.57-2.157a1.059,1.059,0,0,1,1.06-1.06,1.06,1.06,0,0,1,1.06,1.06,1.06,1.06,0,0,1-1.06,1.06A1.06,1.06,0,0,1-224.669,52.972Zm-55.889,0a1.06,1.06,0,0,1,1.06-1.06,1.06,1.06,0,0,1,1.06,1.06,1.061,1.061,0,0,1-1.06,1.06A1.061,1.061,0,0,1-280.558,52.972Zm53.489-14.345,2.329-2.743a11.175,11.175,0,0,0,7.357,2.373c2.613,0,3.919-.48,3.919-1.48,0-.98-1.219-1.306-4.354-1.567-4.528-.392-8.642-1.394-8.642-4.789,0-3.265,3.527-5.051,8.36-5.051a14.67,14.67,0,0,1,8.359,2.263l-2.243,2.766a10.45,10.45,0,0,0-6.116-1.7c-1.786,0-3.94.282-3.94,1.371,0,1.024,1.762,1.154,4.484,1.371,4.986.413,8.511,1.394,8.511,4.9,0,3.135-2.895,5.268-8.424,5.268A15.131,15.131,0,0,1-227.069,38.627Zm-55.638-5.137c0-5.16,3.9-8.12,9.926-8.12s9.949,2.96,9.949,8.12-3.918,8.119-9.949,8.119S-282.707,38.649-282.707,33.49Zm4.506,0c0,2.874,2.068,4.506,5.42,4.506s5.42-1.632,5.42-4.506-2.067-4.507-5.42-4.507C-276.111,28.983-278.2,30.617-278.2,33.49Zm-25.294,0c0-5.16,3.875-8.12,10.122-8.12a11.736,11.736,0,0,1,8.078,2.808l-3.245,2.4a6.436,6.436,0,0,0-4.723-1.7c-3.7,0-5.726,1.633-5.726,4.616,0,3,2.091,4.636,5.791,4.636a6.262,6.262,0,0,0,4.42-1.349V35.406h-5.052V32.293h9.166v5.942c-1.632,2.024-4.637,3.374-8.708,3.374C-299.619,41.609-303.495,38.649-303.495,33.49ZM-359,38.8l2.982-2.591a4.273,4.273,0,0,0,3.7,1.742c2.634,0,3.636-1.5,3.636-3.9V25.871h4.441V34.4c0,4.225-2.721,7.206-8.033,7.206C-355.43,41.609-357.541,40.565-359,38.8Zm42.946.436a2.288,2.288,0,0,1,2.5-2.178,2.28,2.28,0,0,1,2.482,2.178,2.251,2.251,0,0,1-2.482,2.154A2.259,2.259,0,0,1-316.054,39.238Zm-27.447,0A2.287,2.287,0,0,1-341,37.06a2.28,2.28,0,0,1,2.482,2.178A2.251,2.251,0,0,1-341,41.392,2.258,2.258,0,0,1-343.5,39.238Zm7.748,1.872V25.871h10.907c3.744,0,6.117,1.5,6.117,3.94a3.351,3.351,0,0,1-3.483,3.352c2.4.152,4.354,1.415,4.354,3.767,0,2.634-2.373,4.18-6.117,4.18Zm4.4-3.092h6.444c1.567,0,2.5-.37,2.5-1.611s-.936-1.589-2.5-1.589h-6.444Zm0-6.073h5.769c1.481,0,2.46-.326,2.46-1.5,0-1.153-.979-1.48-2.46-1.48h-5.769ZM-148.1,41.109l-9.839-10.014V41.109h-4.289V25.871h4.7l9.034,9.317V25.871h4.289V41.109Zm-22.159,0V25.871h4.44V41.109Zm-18.937,0V25.871h16.022v3.4h-11.647v2.5h9.6v3.243h-9.6v2.7h11.886v3.4Zm-12.886,0V29.419h-6.292V25.871H-191.3v3.548h-6.334v11.69Zm-35.744,0V29.419h-6.292V25.871h17.067v3.548h-6.336v11.69Zm-18.476,0V29.419h-6.292V25.871h17.067v3.548h-6.334v11.69Zm-61.813-29.051,1.455-.264q1.581,2.023,3.137,4.059c-.468.081-.933.162-1.4.244l-.577-.78q-1.242.22-2.479.451-.136.466-.267.933l-1.377.26Q-318.881,14.51-318.112,12.058Zm.418,2.7q.786-.145,1.572-.286-.534-.723-1.072-1.442Q-317.445,13.9-317.694,14.759Zm131.38,1.883A4.643,4.643,0,0,1-189,15.258q.417-.343.835-.683a3.432,3.432,0,0,0,2.059,1.09c.775.142,1.188.075,1.242-.218s-.29-.451-1.209-.7c-1.323-.363-2.5-.871-2.322-1.868.168-.959,1.318-1.3,2.767-1.033a4.478,4.478,0,0,1,2.377,1.129l-.822.683a3.2,3.2,0,0,0-1.733-.837c-.533-.1-1.193-.131-1.251.189-.055.3.465.432,1.266.644,1.464.394,2.459.884,2.262,1.909-.139.729-.782,1.167-1.858,1.167A5.158,5.158,0,0,1-186.314,16.642Zm-4.664-.976q-1.2-1.719-2.44-3.431-.237,1.474-.476,2.948c-.423-.069-.849-.137-1.272-.2q.353-2.243.708-4.487l1.413.226q1.134,1.591,2.247,3.189.232-1.37.465-2.738c.429.072.856.146,1.286.221q-.388,2.237-.775,4.475ZM-313.79,11.289l1.334-.226.575,3.431q1.526-.257,3.05-.5l.167,1.051q-2.18.346-4.357.72Q-313.4,13.528-313.79,11.289Zm6.868-1.113,1.462-.218q1.516,2.07,3.006,4.154l-1.4.2q-.274-.4-.551-.8-1.245.181-2.488.373c-.1.308-.2.617-.3.925q-.689.108-1.38.217Q-307.764,12.6-306.922,10.177Zm.335,2.713q.79-.121,1.579-.238c-.342-.492-.682-.983-1.026-1.474Q-306.312,12.034-306.587,12.89Zm109.517,1.795c-.1-.309-.2-.616-.3-.925q-1.245-.187-2.488-.367-.277.4-.552.8c-.463-.066-.923-.132-1.385-.2-.492-.068-.983-.137-1.473-.2q-.63-1.07-1.27-2.139l-1.123.757c-.045.351-.089.7-.133,1.05l-1.322-.167q.279-2.254.559-4.507.669.082,1.338.168-.134,1.044-.266,2.086,1.3-.894,2.615-1.778.834.111,1.666.227-1.144.755-2.28,1.517.872,1.462,1.73,2.929,1.464-2.059,2.958-4.1c.485.071.974.142,1.46.215q.847,2.425,1.667,4.851Q-196.369,14.792-197.069,14.685Zm-2.2-2.158q.79.114,1.581.233c-.185-.57-.367-1.139-.552-1.709Q-198.754,11.788-199.266,12.527Zm-103.157.834q.287-.454.581-.906a3.426,3.426,0,0,0,2.29.4c.78-.1,1.152-.295,1.112-.592s-.414-.339-1.361-.291c-1.369.064-2.64-.058-2.781-1.061-.137-.964.852-1.64,2.309-1.835a4.454,4.454,0,0,1,2.6.342l-.569.9a3.194,3.194,0,0,0-1.9-.261c-.537.072-1.173.243-1.129.566.043.3.577.268,1.4.223,1.512-.076,2.607.082,2.737,1.118.115.928-.667,1.664-2.311,1.882a6.172,6.172,0,0,1-.8.054A4.27,4.27,0,0,1-302.424,13.361Zm5.657-4.583q.671-.084,1.339-.164.126,1.044.251,2.087,1.045-1.183,2.1-2.362c.558-.064,1.112-.125,1.669-.186q-.924,1.012-1.839,2.027,1.2,1.207,2.391,2.419.918-2.351,1.865-4.7c.488-.05.976-.1,1.467-.147q1.412,2.143,2.794,4.3-.706.064-1.409.131c-.171-.274-.341-.549-.512-.823q-1.252.121-2.5.25c-.112.3-.225.606-.339.91q-.652.067-1.307.139h0c-.52.056-1.037.113-1.557.171q-.872-.884-1.752-1.765-.454.5-.9,1.009l.125,1.05q-.664.079-1.323.161Q-296.486,11.031-296.767,8.778Zm7.976,1.847q.793-.081,1.585-.159-.472-.761-.949-1.523Q-288.474,9.784-288.791,10.625Zm78.4,2.431a4.613,4.613,0,0,1-2.767-1.2q.39-.368.784-.737a3.411,3.411,0,0,0,2.123.949c.78.09,1.186-.006,1.222-.3s-.319-.431-1.249-.616c-1.343-.271-2.545-.7-2.438-1.706.1-.968,1.225-1.385,2.687-1.217a4.453,4.453,0,0,1,2.441.967l-.774.736a3.181,3.181,0,0,0-1.781-.717c-.537-.062-1.2-.049-1.231.272-.033.3.493.4,1.3.559,1.484.294,2.507.715,2.38,1.751-.1.8-.812,1.3-2.064,1.3A5.6,5.6,0,0,1-210.389,13.056Zm-4.387-.627c-.113-.3-.227-.606-.342-.909q-1.249-.126-2.5-.244c-.17.276-.341.55-.51.826-.464-.044-.929-.086-1.391-.127q1.378-2.158,2.786-4.3.733.071,1.467.143.963,2.378,1.9,4.761Zm-2.3-2.046c.529.049,1.056.1,1.588.155q-.318-.84-.635-1.679C-216.44,9.366-216.756,9.874-217.073,10.383Zm-67.558-2.9q.709-.064,1.422-.125,1.484,1.267,2.951,2.543l-.218-2.768,1.3-.1q.171,2.265.339,4.53c-.388.029-.775.058-1.163.09q-1.588-1.373-3.2-2.731c.086.99.17,1.982.258,2.973l-1.282.113Q-284.428,9.742-284.631,7.48ZM-224,11.6q.173-2.264.346-4.528c.447.034.9.069,1.343.105q-.138,1.734-.278,3.467,1.536.123,3.072.259c-.031.354-.064.707-.094,1.06Q-221.8,11.773-224,11.6Zm-1.917-.142q-.183-.449-.369-.9-1.252-.087-2.505-.167-.244.42-.485.841-.7-.044-1.394-.084,1.311-2.2,2.651-4.388l1.47.1q1.037,2.348,2.045,4.7C-224.974,11.529-225.443,11.494-225.914,11.461Zm-2.357-1.974,1.59.105q-.339-.828-.685-1.658Q-227.821,8.71-228.271,9.487Zm-49.922,1.283c.213-.289.425-.577.639-.866a3.415,3.415,0,0,0,2.256.556c.782-.05,1.165-.217,1.147-.515s-.391-.366-1.339-.383c-1.367-.028-2.624-.234-2.7-1.244-.072-.971.957-1.581,2.422-1.677a4.455,4.455,0,0,1,2.572.516c-.212.287-.42.575-.63.863A3.173,3.173,0,0,0-275.7,7.63c-.54.036-1.185.165-1.163.488.022.3.555.306,1.38.317,1.51.025,2.591.257,2.651,1.3.054.933-.776,1.616-2.427,1.723q-.208.013-.41.013A4.432,4.432,0,0,1-278.193,10.77Zm42.924.295c-1.869-.084-2.995-1.006-2.94-2.543s1.263-2.378,3.158-2.292a3.553,3.553,0,0,1,2.4.956c-.337.221-.678.441-1.015.663a1.95,1.95,0,0,0-1.4-.574c-1.12-.05-1.752.412-1.788,1.3s.573,1.406,1.683,1.456a1.9,1.9,0,0,0,1.346-.339l.019-.408q-.76-.037-1.519-.072l.044-.927c.921.041,1.84.086,2.762.134-.033.589-.062,1.18-.094,1.769a3.17,3.17,0,0,1-2.409.882C-235.1,11.07-235.185,11.068-235.269,11.064Zm-35.438-.764.656-.853a3.408,3.408,0,0,0,2.243.6c.784-.035,1.17-.193,1.158-.491s-.383-.375-1.33-.41c-1.367-.057-2.618-.29-2.673-1.3-.05-.971.991-1.561,2.457-1.627a4.445,4.445,0,0,1,2.559.569l-.644.85a3.174,3.174,0,0,0-1.87-.427c-.54.024-1.187.14-1.172.464.013.3.549.317,1.372.345,1.51.056,2.585.31,2.624,1.353.034.934-.81,1.6-2.464,1.673-.1,0-.192.006-.286.006A4.487,4.487,0,0,1-270.707,10.3Zm6.025-4.07q2.427-.087,4.857-.14L-259.8,7.1q-1.761.039-3.521.094l.025.746q1.449-.047,2.9-.081c.007.322.013.644.022.967q-1.447.034-2.889.08c.009.268.018.537.025.8q1.786-.057,3.569-.1l.024,1.012q-2.437.052-4.87.139Q-264.6,8.5-264.681,6.23Zm24.41,4.493q-1.427-1.538-2.876-3.064-.035,1.491-.071,2.983l-1.284-.028q.044-2.27.091-4.541.713.013,1.426.031,1.336,1.42,2.652,2.851.042-1.39.087-2.776l1.3.043-.158,4.54Zm-18.666-4.651q1.622-.034,3.241-.05c1.183-.012,2.1.5,2.11,1.535a1.479,1.479,0,0,1-1.2,1.454q.681.768,1.354,1.536c-.515,0-1.028.006-1.544.01q-.61-.711-1.224-1.421-.674.008-1.348.019c.007.478.016.957.022,1.434q-.664.01-1.323.024Q-258.89,8.342-258.937,6.072Zm1.35.981.018,1.142q.9-.015,1.8-.025c.478,0,.826-.138.821-.579s-.343-.562-.811-.562h-.025Q-256.683,7.039-257.587,7.053Zm10.679,3.52q.03-2.27.059-4.541.674.008,1.348.02-.039,2.27-.077,4.541Zm-4.137-.03Q-252.158,8.27-253.3,6q.726,0,1.453,0,.763,1.635,1.512,3.274.76-1.633,1.53-3.262l1.44.015q-1.16,2.257-2.29,4.522Q-250.347,10.544-251.046,10.543Z" transform="translate(359.696 -5.5)" fill="#324955" stroke="rgba(0,0,0,0)" stroke-width="1"/>
</svg>
