<svg xmlns="http://www.w3.org/2000/svg" width="107.546" height="67.494" viewBox="0 0 107.546 67.494"><defs><style>.a{fill:#003953;}.b{fill:#fff;}.c{fill:#ce3643;}</style></defs><g transform="translate(-634.581 -74.039)"><g transform="translate(634.581 74.039)"><path class="a" d="M691.065,80.309c27.5,0,49.8,13.438,49.8,30.021s-22.3,30.016-49.8,30.016-49.8-13.438-49.8-30.016S663.559,80.309,691.065,80.309Z" transform="translate(-637.289 -76.581)"/><path class="a" d="M688.357,74.039c29.647,0,53.77,15.139,53.77,33.75S718,141.533,688.357,141.533s-53.776-15.139-53.776-33.744S658.7,74.039,688.357,74.039Zm51.061,33.75c0-17.113-22.9-31.039-51.061-31.039S637.3,90.676,637.3,107.789s22.9,31.033,51.061,31.033,51.059-13.92,51.059-31.033Z" transform="translate(-634.581 -74.039)"/><path class="b" d="M740.006,109.638c0-16.584-22.3-30.021-49.8-30.021s-49.8,13.438-49.8,30.021,22.3,30.016,49.8,30.016S740.006,126.215,740.006,109.638Zm1.26,0c0,17.113-22.9,31.033-51.061,31.033s-51.061-13.92-51.061-31.033S662.053,78.6,690.208,78.6,741.266,92.525,741.266,109.638Z" transform="translate(-636.432 -75.888)"/></g><g transform="translate(651.258 81.94)"><g transform="translate(9.582 0)"><path class="c" d="M713.472,113.16a30.082,30.082,0,0,1-7.4-1.9c-2.877-.99-4.233-1.535-4.517-1.814a5.742,5.742,0,0,1-1.033-3.277,4.49,4.49,0,0,1,1.494-3.076,4.82,4.82,0,0,1,3.4-.626,8.028,8.028,0,0,1,1.338.951c1.737,1.457,2.392,1.723,4.073,1.651,1.012-.043,1.154-.025,1.522.192a5.583,5.583,0,0,1,1,.911,5.954,5.954,0,0,0,2.26,1.93,6.583,6.583,0,0,0,3.891.427c.934-.088,2.263-.257,2.953-.376.809-.137,1.257-.18,1.262-.118a5.537,5.537,0,0,1-1.087,1.857,5.645,5.645,0,0,1-1.521,1.377,12.9,12.9,0,0,1-7.638,1.893Zm16.747-3.31a2.264,2.264,0,0,1-.917-1.345,3.289,3.289,0,0,0-1.04-1.743,3.341,3.341,0,0,0-1.914-.889c-.56.055-1.377-.622-2.41-2-.834-1.111-1.156-1.214-3.093-.995-1.663.189-1.893.153-2.653-.41a7.434,7.434,0,0,1-1.535-1.86c-.551-.779-1.005-.957-2.534-.989a8,8,0,0,1-1.47-.13,5.875,5.875,0,0,1-1.04-.742,6.781,6.781,0,0,0-1.23-.848c-.436-.191-.567-.2-1.666-.08a8.942,8.942,0,0,0-4.8,1.956,11.078,11.078,0,0,0-3.707,4.529,6.142,6.142,0,0,0,.1,4.211c.592,1.622.622,1.818.279,1.852-.479.048-1.725-.792-3.628-2.437-.638-.551-1.608-1.377-2.157-1.835-1.427-1.189-2.187-2.894-3.543-4.151-1.273-1.18-4.02-2.574-5.806-1.876-.848.331-1.2,1.852-1.463,2.627-.534,1.55-.79,2.056-1.174,2.324-.637.441-1.136.316-2.137-.537a5.5,5.5,0,0,1-1.435-6.455,10.231,10.231,0,0,1,2.019-3.128,5.189,5.189,0,0,1,3.3-1.409A24.83,24.83,0,0,0,689.6,91.98a33.259,33.259,0,0,1,10.164-2.346,30.749,30.749,0,0,1,7.252.362c9.949,1.491,15.462,6.09,15.5,6.084a8.846,8.846,0,0,0-1.952-2.1,29.182,29.182,0,0,0-15.422-5.316,39.279,39.279,0,0,0-12.927,1.487c-.547.162-1.137.332-1.309.377l-.313.084.267-.128c.511-.247,3.061-1.114,4.406-1.5,8.408-2.409,16.282-2.187,22.808.631a25.363,25.363,0,0,1,9.495,7.186,15.739,15.739,0,0,1,3.029,6.708,33.344,33.344,0,0,1,.5,5.279c-.034.776-.191,1.31-.39,1.33a1.175,1.175,0,0,1-.484-.267Z" transform="translate(-678.747 -87.326)"/></g><g transform="translate(0 26.77)"><g transform="translate(0 0.779)"><path class="b" d="M677.663,139a4.359,4.359,0,0,0-3.346-1.372,3.408,3.408,0,0,0-2.442,1.1,4.716,4.716,0,0,0-1.4,3.449,6.193,6.193,0,0,1-.255,2.068,2.58,2.58,0,0,1-1.128,1.625,3.258,3.258,0,0,1-2,.161,1.446,1.446,0,0,1-.789-.7c-.32-.582-.327-.684-.354-4.881-.016-2.4,0-4,.029-4.4.091-1.068.342-1.414,1.088-1.5l.291-.036v-.566a.284.284,0,0,0-.284-.284h-4.159a.284.284,0,0,0-.284.284v.566l.293.036a1.038,1.038,0,0,1,.733.348c.328.357.318.194.335,5.254.011,3.052,0,4.7-.038,4.933-.114.734-.468,1.1-1.072,1.1h-.251v.565a.347.347,0,0,0,.348.347l3.858-.012,3.775-.012a.438.438,0,0,0,.436-.432l.007-.634c.007-.585.025-1.094.039-1.135s.137.09.317.355a5.009,5.009,0,0,0,3.369,2.224,5.38,5.38,0,0,0,1.572-.079,4.3,4.3,0,0,0,.737-.273,4.556,4.556,0,0,0,2.347-4.335A5.529,5.529,0,0,0,677.663,139Zm-1.834,7.3h0c-1.147.539-2.473-.82-2.939-3.008a7.579,7.579,0,0,1,0-2.711,2.891,2.891,0,0,1,1.067-1.736,1.409,1.409,0,0,1,1.187-.029c.985.448,1.866,2.237,1.955,3.969C677.18,144.442,676.653,145.907,675.829,146.294Z" transform="translate(-662.627 -133.659)"/></g><g transform="translate(47.276 0.855)"><path class="b" d="M751.375,143.692c-.176,0-.388.176-.432.5v.038c0,.193-.128.518-.984.518h-3.934l.38-.231c1.162-.707,4.5-3.436,4.576-6.59a3.881,3.881,0,0,0-4.063-4.133,4.139,4.139,0,0,0-4.314,4.047c0,.889.394,1.934,1.5,1.934a1.448,1.448,0,0,0,1.325-1.379c0-.232-.068-.245-.26-.282-.372-.068-.706-.213-.706-1.168a1.906,1.906,0,0,1,1.9-1.861c1.308,0,2.058.985,2.058,2.7,0,2.155-2.269,5.176-5.921,7.885a.837.837,0,0,0-.362.688.636.636,0,0,0,.663.61h7.125c.615,0,.644.373.644.446a.459.459,0,0,1-.012.1.234.234,0,0,0-.007.048.369.369,0,0,0,.3.377c.109,0,.265-.137.342-.523l.429-3.021a1.26,1.26,0,0,0,.016-.251C751.643,143.83,751.508,143.692,751.375,143.692Z" transform="translate(-742.136 -133.789)"/></g><g transform="translate(56.968 0.843)"><path class="b" d="M766.044,134.61a4.111,4.111,0,0,0-2.542-.842,5.01,5.01,0,0,0-.722.053c-3.227.47-4.773,3.281-4.243,7.724a7.043,7.043,0,0,0,2.324,4.922,4.317,4.317,0,0,0,3.37.788c3.1-.452,4.725-3.281,4.238-7.378C768.174,137.421,767.336,135.6,766.044,134.61Zm-1.326,11.164a1.409,1.409,0,0,1-.391.054,1.959,1.959,0,0,1-.983-.3,5.837,5.837,0,0,1-2.295-3.774c-.873-3.712-.02-6.03,1.274-6.4a1.671,1.671,0,0,1,1.316.221c1.04.61,1.91,2.124,2.387,4.154.772,3.279-.079,5.688-1.308,6.041Z" transform="translate(-758.435 -133.768)"/></g><g transform="translate(67.005 0.933)"><path class="b" d="M785.267,134.151c0-.193-.263-.234-.484-.234h-9l-.45,3.062a.77.77,0,0,0-.017.2c0,.27.124.41.359.41a.666.666,0,0,0,.582-.368c.009-.048.368-1.618,1.458-1.618h4.691l-.176.205c-2.98,3.49-4.337,7.423-4.337,9.6a.867.867,0,0,1-.813.893c-.282,0-.3.284-.3.342,0,.152.077.377.287.377h4.349a.316.316,0,0,0,.3-.323c0-.394-.23-.394-.3-.394a.937.937,0,0,1-.876-.948c0-3,1.867-7.509,4.343-10.479A1.455,1.455,0,0,0,785.267,134.151Z" transform="translate(-775.316 -133.917)"/></g><g transform="translate(15.892 0)"><path class="b" d="M719.063,138.445a2.135,2.135,0,0,0-1.326.205,2.994,2.994,0,0,0-.841.672l-.5.506.041-.552c.059-.8.048-.882-.137-1.049s-.205-.162-.943.068a7.057,7.057,0,0,1-1.1.22,4.23,4.23,0,0,0-.741.13.531.531,0,0,0-.171.282l-.068.226-.338-.245a2.293,2.293,0,0,0-1.071-.5,4.925,4.925,0,0,0-1.765.055,3.371,3.371,0,0,0-1.414.815l-.4.377.039-.214a1.112,1.112,0,0,0-.111-.728c-.137-.163-.417-.232-1.049-.26l-.623-.027v-.615a7.665,7.665,0,0,0-.044-.864.5.5,0,0,0-.511-.484c-.246,0-.414.137-.81.653a4.542,4.542,0,0,1-1.23,1.151,2.3,2.3,0,0,1-.6.179,1.378,1.378,0,0,0-.524.172c-.251.165-.368.159-.943-.056a2.7,2.7,0,0,0-2.187.023,2.8,2.8,0,0,0-1.39,1.536,2.341,2.341,0,0,0,.1,1.628c.291.589.88,1,2.135,1.5,1.175.466,1.483.719,1.483,1.219a1.224,1.224,0,0,1-.762,1.01,1.7,1.7,0,0,1-1.572-.231l-.149-.126.109-.205a1.383,1.383,0,0,0,.092-.921,1.131,1.131,0,0,0-.655-.581,1.019,1.019,0,0,0-.813.068l-.273.126.035-.137a8.208,8.208,0,0,0,.073-1.736,3.494,3.494,0,0,0-1.156-2.455,2.788,2.788,0,0,0-1.944-.924,3.664,3.664,0,0,0-2.187.5,1.025,1.025,0,0,1-.388.168,32.851,32.851,0,0,1-.02-3.591c.057-1.533.011-1.367.547-2.023a.913.913,0,0,0,.262-.517c.054-.478-.41-.638-.779-.516a6.424,6.424,0,0,0-1.015.472,14,14,0,0,0-1.738,1.063.752.752,0,0,0-.332.713c.068.318.3.368.574.368.578,0,.53-.337.547,3.859a41.444,41.444,0,0,1-.227,6.688l-.137.81.1.137a.788.788,0,0,0,.225.2.638.638,0,0,0,.162.064,1.523,1.523,0,0,0,.643-.371c.4-.342.486-.342,1.258-.044a3.722,3.722,0,0,0,1.709.364,3.466,3.466,0,0,0,3-1.543c.367-.478.443-.515.445-.226a1.935,1.935,0,0,0,.582,1,3.44,3.44,0,0,0,1.278.7,5.976,5.976,0,0,0,1.93,0A2.862,2.862,0,0,0,703.669,144a1.914,1.914,0,0,0-.8-1.685,7.339,7.339,0,0,0-1.826-.9,8.314,8.314,0,0,1-1.131-.533.834.834,0,0,1,0-1.094,1.1,1.1,0,0,1,1.588-.055.98.98,0,0,1,.326.867c0,.455.167.695.485.695.189,0,.368-.209.729-.854.466-.834.41-.792.947-.729.321.038.47.077.514.137.113.156.143.735.143,2.915,0,2.616.025,2.489-.53,2.7-.647.242-.8.541-.5.952l.116.158,1.949-.016,1.949-.016.122-.142a.486.486,0,0,0,.122-.342c0-.294-.151-.431-.657-.6-.6-.194-.621-.232-.678-1.124-.048-.74.016-4.535.078-4.595a3.5,3.5,0,0,1,.7.049,1.981,1.981,0,0,0,.763.03c.137-.074.126-.021-.048.2a4.37,4.37,0,0,0,.947,6.155,3.728,3.728,0,0,0,3.876.034c.233-.137.432-.254.442-.254a.363.363,0,0,1,.017.154c0,.249.182.388.565.427.433.045,3.5.01,3.612-.042a.615.615,0,0,0,.221-.539.63.63,0,0,0-.449-.432,1.239,1.239,0,0,1-.735-.319c-.077-.117-.087-.3-.085-1.6,0-1.652.034-1.877.353-2.509s.643-.893,1.135-.945c.333-.035.465.051.645.419.205.42.308.524.52.524.441,0,.524-.195.52-1.23C719.6,138.794,719.516,138.571,719.063,138.445ZM695.837,144.5a1.9,1.9,0,0,1-2.378.953,2.012,2.012,0,0,1-.82-.779c-.21-.4-.234-.625-.262-2.377l-.026-1.7.293-.267a1.9,1.9,0,0,1,2.758.072,3.457,3.457,0,0,1,.8,2.379,3.28,3.28,0,0,1-.362,1.719Zm13.426-1.846a4.03,4.03,0,0,1-.062-1.162,2.157,2.157,0,0,1,.446-1.42,1.294,1.294,0,0,1,1.812-.312,1.224,1.224,0,0,1,.452.9c.031.292.025.313-.133.492a4.854,4.854,0,0,1-1.174.7,9.846,9.846,0,0,0-1.168.658,1.347,1.347,0,0,1-.175.146Zm5.218,1.187c-.021,1.286-.061,1.47-.354,1.621-.205.107-.4.176-.4.144a1.568,1.568,0,0,1,.122-.24,1.581,1.581,0,0,0,.157-.377c.029-.14.012-.187-.124-.322-.205-.205-.335-.181-.942.177a3.152,3.152,0,0,1-1.7.485,1.648,1.648,0,0,1-1.474-.943.774.774,0,0,1,.232-.729c.229-.253.4-.342,1.622-.882,1.626-.715,1.9-.895,2.143-1.435a1.7,1.7,0,0,0-.051-1.329,2,2,0,0,1-.122-.342,1.983,1.983,0,0,1,.706.228c.076.074.1.273.145,1.435.032.74.049,1.87.039,2.509Z" transform="translate(-689.351 -132.349)"/></g></g><g transform="translate(21.519 44.628)"><g transform="translate(0 0)"><g transform="translate(0 0.002)"><path class="c" d="M704.086,162.385v3.937h-.9v-2.74l-1.726,2.109h-.045l-1.726-2.109v2.74h-.872v-3.937h.978l1.665,2.081,1.664-2.081Z" transform="translate(-698.818 -162.385)"/></g><g transform="translate(7.89 0.003)"><path class="c" d="M715.85,165.49h-2.379l-.422.833h-.962l2.086-3.937h.984l2.086,3.937h-.973Zm-.377-.731-.815-1.6-.815,1.6Z" transform="translate(-712.088 -162.386)"/></g><g transform="translate(15.663 0.002)"><path class="c" d="M725.16,166.322v-3.937h.9v3.937Z" transform="translate(-725.16 -162.385)"/></g><g transform="translate(19.701 0.002)"><path class="c" d="M736.433,162.385v3.937h-.787l-2.823-2.846v2.846h-.872v-3.937h.957l2.654,2.7v-2.7Z" transform="translate(-731.951 -162.385)"/></g><g transform="translate(27.322)"><path class="c" d="M748.823,165.567v.752h-4.055v-3.937h4v.752h-3.1v.81h2.593v.752h-2.593v.866Z" transform="translate(-744.768 -162.382)"/></g></g></g></g></g></svg>