<?xml version="1.0" standalone="no"?>
<!DOCTYPE svg PUBLIC "-//W3C//DTD SVG 1.1//EN" "http://www.w3.org/Graphics/SVG/1.1/DTD/svg11.dtd" >
<svg xmlns="http://www.w3.org/2000/svg" xmlns:xlink="http://www.w3.org/1999/xlink" version="1.1">
<metadata></metadata>
<defs>
<font id="riftmedium" horiz-adv-x="925" >
<font-face units-per-em="2048" ascent="1597" descent="-451" />
<missing-glyph horiz-adv-x="327" />
<glyph horiz-adv-x="0" />
<glyph horiz-adv-x="682" />
<glyph unicode=" "  horiz-adv-x="327" />
<glyph unicode="&#x09;" horiz-adv-x="327" />
<glyph unicode="&#xa0;" horiz-adv-x="327" />
<glyph unicode="!" horiz-adv-x="364" d="M106 0v182h152v-182h-152zM106 1212v222h150v-220l-16 -874h-115z" />
<glyph unicode="&#x22;" horiz-adv-x="600" d="M53 903l90 531h150l-150 -531h-90zM328 903l90 531h149l-149 -531h-90z" />
<glyph unicode="#" horiz-adv-x="1224" d="M33 430v119h260l76 336h-254v119h280l99 430h129l-99 -430h305l99 430h129l-99 -430h234v-119h-260l-76 -336h254v-119h-281l-98 -430h-129l98 430h-305l-98 -430h-129l98 430h-233zM422 549h305l76 336h-305z" />
<glyph unicode="$" horiz-adv-x="856" d="M98 283v237h146v-205q0 -102 44.5 -151t141.5 -49t141.5 49t44.5 151v115q0 69 -29 107t-106 81l-200 111q-99 56 -141 110t-42 144v172q0 130 69.5 203.5t194.5 87.5v147h136v-147q122 -15 191 -88.5t69 -202.5v-221h-146v188q0 103 -43.5 150t-140.5 47t-140.5 -47 t-43.5 -150v-100q0 -69 26 -102.5t103 -75.5l205 -113q90 -49 137 -110.5t47 -147.5v-190q0 -271 -264 -295v-148h-136v146q-132 14 -198 86t-66 211z" />
<glyph unicode="%" horiz-adv-x="1046" d="M74 1006v262q0 88 47.5 131t118.5 43h32q68 0 116 -43.5t48 -130.5v-262q0 -88 -48 -131.5t-116 -43.5h-32q-71 0 -118.5 43.5t-47.5 131.5zM135 0l676 1434h100l-675 -1434h-101zM170 1026q0 -56 18 -80t56 -24h22q38 0 56 24t18 80v221q0 56 -18 80.5t-56 24.5h-22 q-38 0 -56 -24.5t-18 -80.5v-221zM610 166v262q0 88 47.5 131t118.5 43h33q68 0 116 -43.5t48 -130.5v-262q0 -87 -48 -130.5t-116 -43.5h-33q-71 0 -118.5 43t-47.5 131zM707 186q0 -56 17.5 -80t55.5 -24h23q38 0 56 24t18 80v222q0 56 -18 80t-56 24h-23q-38 0 -55.5 -24 t-17.5 -80v-222z" />
<glyph unicode="&#x26;" horiz-adv-x="948" d="M98 270v320q0 83 28.5 144t78.5 91q-46 68 -65 121.5t-19 120.5v88q0 150 80.5 222.5t244.5 72.5h5q328 0 325 -295v-192h-141v163q0 104 -47.5 149.5t-136.5 45.5q-90 0 -137.5 -45.5t-47.5 -149.5v-55q0 -57 18.5 -99t92.5 -149l266 -387l82 346h139l-116 -497 l196 -285h-153l-95 133q-81 -149 -288 -149h-15q-154 0 -224.5 78t-70.5 208zM244 324q0 -111 42 -163t132 -52q76 0 117.5 36.5t66.5 122.5l-323 467q-35 -47 -35 -117v-294z" />
<glyph unicode="'" horiz-adv-x="325" d="M53 903l90 531h150l-150 -531h-90z" />
<glyph unicode="(" horiz-adv-x="565" d="M127 205v1024q0 303 336 303h45v-129h-45q-99 0 -147 -47t-48 -164v-950q0 -112 46 -161.5t149 -49.5h45v-129h-45q-336 0 -336 303z" />
<glyph unicode=")" horiz-adv-x="565" d="M57 31h45q103 0 149 49.5t46 161.5v950q0 117 -48 164t-147 47h-45v129h45q336 0 336 -303v-1024q0 -303 -336 -303h-45v129z" />
<glyph unicode="*" horiz-adv-x="675" d="M51 1194l35 109l217 -93l-24 232h120l-24 -232l215 93l35 -109l-228 -51l154 -174l-94 -72l-119 201l-119 -199l-92 72l154 172z" />
<glyph unicode="+" horiz-adv-x="860" d="M106 674v117h267v264h116v-264h265v-117h-265v-266h-116v266h-267z" />
<glyph unicode="," horiz-adv-x="339" d="M94 0v182h152v-135q0 -168 -88 -299l-60 31q26 42 44.5 104.5t21.5 116.5h-70z" />
<glyph unicode="-" horiz-adv-x="565" d="M53 672v123h459v-123h-459z" />
<glyph unicode="." horiz-adv-x="339" d="M94 0v182h152v-182h-152z" />
<glyph unicode="/" horiz-adv-x="653" d="M25 -98l473 1630h131l-473 -1630h-131z" />
<glyph unicode="0" horiz-adv-x="892" d="M119 287v860q0 152 82 227.5t237 75.5h17q155 0 237 -75.5t82 -227.5v-860q0 -152 -82 -227.5t-237 -75.5h-17q-155 0 -237 75.5t-82 227.5zM262 324q0 -110 45 -158.5t139 -48.5t139.5 48.5t45.5 158.5v786q0 110 -45.5 158.5t-139.5 48.5t-139 -48.5t-45 -158.5v-786z " />
<glyph unicode="1" horiz-adv-x="444" d="M147 0v1300q51 60 64 134h80v-1434h-144z" />
<glyph unicode="2" horiz-adv-x="811" d="M94 0v297q0 53 16 102t38.5 86t64 80.5t75.5 72t91 73.5q51 41 72.5 58.5t54 47.5t44.5 49.5t22 46t10 54.5v163q0 193 -174 193q-85 0 -126.5 -47t-41.5 -146v-182h-142v207q0 295 312 295h4q311 0 311 -295v-203q0 -22 -4.5 -43t-9 -38t-18 -38.5t-20.5 -34t-28.5 -35 t-30 -32t-37 -34t-37.5 -32t-42.5 -35t-42.5 -34.5q-60 -50 -94.5 -82t-65.5 -70t-44 -74t-13 -77v-166h487v-127h-631z" />
<glyph unicode="3" horiz-adv-x="821" d="M86 287v180h143v-156q0 -200 168 -200h15q168 0 168 200v224q0 143 -160 143h-156v127h135q93 0 137 37.5t44 126.5v153q0 201 -168 201h-19q-168 0 -168 -201v-123h-139v148q0 303 311 303h15q311 0 311 -303v-176q0 -205 -150 -226q48 -9 80 -31t46 -53.5t19 -59 t5 -62.5v-252q0 -144 -73 -223.5t-218 -79.5h-55q-145 0 -218 79.5t-73 223.5z" />
<glyph unicode="4" horiz-adv-x="774" d="M29 365v137l426 932h174v-938h116v-131h-116v-365h-144v365h-456zM152 496h333v741z" />
<glyph unicode="5" horiz-adv-x="839" d="M111 279v208h141v-184q0 -99 43 -145.5t133 -46.5q88 0 131 46.5t43 145.5v346q0 90 -40.5 123t-104.5 33q-71 0 -116.5 -28.5t-78.5 -80.5l-143 39v699h610v-129h-467v-465q75 94 217 94q54 0 99.5 -13t84 -41.5t60.5 -80.5t22 -123v-397q0 -295 -315 -295h-4 q-315 0 -315 295z" />
<glyph unicode="6" horiz-adv-x="860" d="M119 279v876q0 152 73 223.5t234 71.5h4q161 0 234 -71.5t73 -223.5v-135h-143v110q0 107 -38.5 150t-127.5 43t-127.5 -43t-38.5 -150v-344q56 86 203 86q129 0 207 -68.5t78 -203.5v-321q0 -151 -76 -223t-238 -72h-4q-162 0 -237.5 72t-75.5 223zM262 303 q0 -106 41 -149t131 -43t131 43t41 149v270q0 170 -172 170q-77 0 -124.5 -42t-47.5 -128v-270z" />
<glyph unicode="7" horiz-adv-x="706" d="M35 1305v129h604v-109l-326 -1325h-143l322 1305h-457z" />
<glyph unicode="8" horiz-adv-x="841" d="M98 287v211q0 221 150 247q-150 19 -150 226v176q0 144 73 223.5t218 79.5h64q145 0 217.5 -79.5t72.5 -223.5v-176q0 -208 -149 -226q149 -25 149 -247v-211q0 -144 -72.5 -223.5t-217.5 -79.5h-64q-145 0 -218 79.5t-73 223.5zM242 311q0 -103 42.5 -151.5t116.5 -48.5 h39q74 0 117 48.5t43 151.5v203q0 164 -160 164h-39q-159 0 -159 -164v-203zM242 969q0 -164 159 -164h39q160 0 160 164v153q0 103 -43 152t-117 49h-39q-74 0 -116.5 -49t-42.5 -152v-153z" />
<glyph unicode="9" horiz-adv-x="860" d="M111 834v321q0 151 75.5 223t237.5 72h4q162 0 237.5 -72t75.5 -223v-876q0 -152 -73 -223.5t-234 -71.5h-4q-161 0 -234 71.5t-73 223.5v135h143v-111q0 -107 38.5 -149.5t127.5 -42.5t127.5 42.5t38.5 149.5v344q-56 -86 -203 -86q-129 0 -206.5 68.5t-77.5 204.5z M254 860q0 -170 172 -170q77 0 124.5 42t47.5 128v270q0 106 -41 149.5t-131 43.5t-131 -43.5t-41 -149.5v-270z" />
<glyph unicode=":" horiz-adv-x="339" d="M94 0v182h152v-182h-152zM94 764v182h152v-182h-152z" />
<glyph unicode=";" horiz-adv-x="339" d="M94 0v182h152v-135q0 -168 -88 -299l-60 31q26 42 44.5 104.5t21.5 116.5h-70zM94 764v182h152v-182h-152z" />
<glyph unicode="&#x3c;" horiz-adv-x="860" d="M131 664l569 -420v157l-458 330l458 330v158l-569 -420v-135z" />
<glyph unicode="=" horiz-adv-x="860" d="M106 504v119h648v-119h-648zM106 844v119h648v-119h-648z" />
<glyph unicode="&#x3e;" horiz-adv-x="860" d="M160 244l569 420v135l-569 420v-158l458 -330l-458 -330v-157z" />
<glyph unicode="?" horiz-adv-x="782" d="M78 934v221q0 152 74.5 223.5t236.5 71.5h4q162 0 237 -71.5t75 -223.5v-168q0 -47 -12 -87t-36.5 -72.5t-44 -52.5t-51.5 -46q-63 -49 -90 -100t-27 -131v-156h-122v213q0 75 32.5 139.5t104.5 128.5q50 42 76 84t26 97v126q0 105 -43 149t-131 44q-87 0 -127.5 -43.5 t-40.5 -149.5v-196h-141zM307 0v182h152v-182h-152z" />
<glyph unicode="@" horiz-adv-x="1292" d="M119 207v940q0 154 90 228.5t258 74.5h358q168 0 258.5 -74.5t90.5 -228.5v-653q0 -156 -60.5 -230t-157.5 -74q-64 0 -102.5 29.5t-48.5 71.5q-10 -49 -67 -81t-122 -32h-4q-83 0 -149 52t-66 157v504q0 100 64 154.5t153 54.5h4q60 0 107.5 -26.5t60.5 -67.5l27 81h80 v-688q0 -114 78 -114q48 0 74 51.5t26 138.5v690q0 92 -60 140.5t-159 48.5h-412q-99 0 -160 -48.5t-61 -140.5v-977q0 -92 61 -140t160 -48h494v-96h-479q-336 0 -336 303zM514 424q0 -68 36 -103.5t95 -35.5q58 0 93.5 35.5t35.5 103.5v430q0 68 -35.5 103.5t-93.5 35.5 q-59 0 -95 -35.5t-36 -103.5v-430z" />
<glyph unicode="A" horiz-adv-x="868" d="M41 0l303 1434h176l307 -1434h-151l-72 354h-348l-72 -354h-143zM281 483h299l-150 746z" />
<glyph unicode="B" horiz-adv-x="903" d="M127 0v1434h350q158 0 239 -76t81 -207v-180q0 -39 -8 -74.5t-25 -69.5t-49.5 -56t-77.5 -26q91 -14 129.5 -77.5t38.5 -149.5v-235q0 -129 -86.5 -206t-245.5 -77h-346zM274 131h207q93 0 134.5 45t41.5 139v215q0 146 -176 146h-207v-545zM274 807h199q176 0 176 145 v166q0 94 -41.5 139.5t-134.5 45.5h-199v-496z" />
<glyph unicode="C" horiz-adv-x="905" d="M119 287v860q0 150 86 226.5t250 76.5h4q164 0 250 -76.5t86 -226.5v-250h-148v213q0 110 -44.5 158.5t-145.5 48.5t-146 -48.5t-45 -158.5v-786q0 -110 45 -158.5t146 -48.5t145.5 48.5t44.5 158.5v247h148v-284q0 -303 -336 -303h-4q-336 0 -336 303z" />
<glyph unicode="D" horiz-adv-x="923" d="M127 0v1434h342q165 0 250.5 -76t85.5 -228v-827q0 -303 -336 -303h-342zM274 133h187q104 0 150 48t46 159v754q0 111 -46 158.5t-150 47.5h-187v-1167z" />
<glyph unicode="E" horiz-adv-x="790" d="M127 0v1434h580v-134h-433v-507h369v-131h-369v-529h439v-133h-586z" />
<glyph unicode="F" horiz-adv-x="743" d="M127 0v1434h571v-134h-424v-518h361v-131h-361v-651h-147z" />
<glyph unicode="G" horiz-adv-x="921" d="M119 287v860q0 150 86 226.5t250 76.5h16q164 0 250 -76.5t86 -226.5v-193h-148v156q0 111 -46 159t-150 48t-150.5 -48t-46.5 -159v-786q0 -111 46.5 -159t150.5 -48t150 48t46 159v264h-204v131h352v-432q0 -303 -336 -303h-16q-336 0 -336 303z" />
<glyph unicode="H" horiz-adv-x="952" d="M127 0v1434h147v-637h404v637h147v-1434h-147v662h-404v-662h-147z" />
<glyph unicode="I" horiz-adv-x="415" d="M135 0v1434h148v-1434h-148z" />
<glyph unicode="J" horiz-adv-x="565" d="M37 0v135h61q104 0 151.5 48.5t47.5 160.5v1090h147v-1131q0 -303 -342 -303h-65z" />
<glyph unicode="K" horiz-adv-x="880" d="M127 0v1434h147v-738l402 738h160l-310 -537l334 -897h-153l-271 739l-162 -278v-461h-147z" />
<glyph unicode="L" horiz-adv-x="718" d="M127 0v1434h147v-1299h408v-135h-555z" />
<glyph unicode="M" horiz-adv-x="1218" d="M127 0v1434h141l336 -949l340 949h148v-1434h-144v1073l-301 -840h-82l-301 840v-1073h-137z" />
<glyph unicode="N" horiz-adv-x="960" d="M127 0v1434h149l420 -1088v1088h138v-1434h-142l-428 1108v-1108h-137z" />
<glyph unicode="O" d="M119 287v860q0 303 336 303h16q336 0 336 -303v-860q0 -303 -336 -303h-16q-336 0 -336 303zM266 324q0 -111 46.5 -159t150.5 -48t150 48t46 159v786q0 111 -46 159t-150 48t-150.5 -48t-46.5 -159v-786z" />
<glyph unicode="P" horiz-adv-x="882" d="M127 0v1434h346q165 0 250.5 -76t85.5 -228v-239q0 -303 -336 -303h-199v-588h-147zM274 721h191q104 0 150.5 48t46.5 159v166q0 111 -46.5 158.5t-150.5 47.5h-191v-579z" />
<glyph unicode="Q" d="M119 287v860q0 303 336 303h16q336 0 336 -303v-860q0 -271 -270 -299v-191h-140v189q-278 25 -278 301zM266 324q0 -111 46.5 -159t150.5 -48t150 48t46 159v786q0 111 -46 159t-150 48t-150.5 -48t-46.5 -159v-786z" />
<glyph unicode="R" horiz-adv-x="923" d="M127 0v1434h346q165 0 250.5 -76t85.5 -228v-223q0 -220 -182 -280l231 -627h-153l-220 604h-12h-199v-604h-147zM274 735h191q104 0 150.5 48t46.5 159v152q0 111 -46.5 158.5t-150.5 47.5h-191v-565z" />
<glyph unicode="S" horiz-adv-x="856" d="M98 283v237h146v-205q0 -102 44.5 -151t141.5 -49t141.5 49t44.5 151v115q0 69 -29 107t-106 81l-200 111q-99 56 -141 110t-42 144v172q0 146 87.5 220.5t240.5 74.5h4q153 0 240.5 -74.5t87.5 -220.5v-221h-146v188q0 103 -43.5 150t-140.5 47t-140.5 -47t-43.5 -150 v-100q0 -69 26 -102.5t103 -75.5l205 -113q90 -49 137 -110.5t47 -147.5v-190q0 -154 -82.5 -226.5t-247.5 -72.5h-4q-166 0 -248 71.5t-82 227.5z" />
<glyph unicode="T" horiz-adv-x="733" d="M33 1300v134h669v-134h-262v-1300h-147v1300h-260z" />
<glyph unicode="U" horiz-adv-x="917" d="M123 287v1147h147v-1110q0 -113 43 -160t146 -47t145.5 47t42.5 160v1110h148v-1147q0 -303 -332 -303h-8q-165 0 -248.5 73.5t-83.5 229.5z" />
<glyph unicode="V" horiz-adv-x="835" d="M41 1434h152l229 -1184l229 1184h144l-297 -1434h-160z" />
<glyph unicode="W" horiz-adv-x="1314" d="M45 1434h148l172 -1155l227 1155h139l227 -1155l172 1155h140l-236 -1434h-143l-232 1149l-231 -1149h-147z" />
<glyph unicode="X" horiz-adv-x="841" d="M33 0l303 739l-281 695h158l213 -564l199 564h153l-268 -701l299 -733h-158l-233 602l-232 -602h-153z" />
<glyph unicode="Y" horiz-adv-x="847" d="M41 1434h154l229 -721l231 721h152l-309 -889v-545h-148v545z" />
<glyph unicode="Z" horiz-adv-x="743" d="M53 0v106l467 1201h-442v127h600v-107l-467 -1200h481v-127h-639z" />
<glyph unicode="[" horiz-adv-x="565" d="M127 -98v1630h381v-131h-240v-1368h240v-131h-381z" />
<glyph unicode="\" horiz-adv-x="653" d="M25 1532h131l473 -1630h-131z" />
<glyph unicode="]" horiz-adv-x="565" d="M57 33h240v1368h-240v131h381v-1630h-381v131z" />
<glyph unicode="^" horiz-adv-x="770" d="M41 741h139l205 555l205 -555h139l-268 693h-152z" />
<glyph unicode="_" horiz-adv-x="698" d="M-10 -113h719v-112h-719v112z" />
<glyph unicode="`" horiz-adv-x="927" d="M268 1810h183l141 -264h-115z" />
<glyph unicode="a" horiz-adv-x="868" d="M41 0l303 1434h176l307 -1434h-151l-72 354h-348l-72 -354h-143zM281 483h299l-150 746z" />
<glyph unicode="b" horiz-adv-x="903" d="M127 0v1434h350q158 0 239 -76t81 -207v-180q0 -39 -8 -74.5t-25 -69.5t-49.5 -56t-77.5 -26q91 -14 129.5 -77.5t38.5 -149.5v-235q0 -129 -86.5 -206t-245.5 -77h-346zM274 131h207q93 0 134.5 45t41.5 139v215q0 146 -176 146h-207v-545zM274 807h199q176 0 176 145 v166q0 94 -41.5 139.5t-134.5 45.5h-199v-496z" />
<glyph unicode="c" horiz-adv-x="905" d="M119 287v860q0 150 86 226.5t250 76.5h4q164 0 250 -76.5t86 -226.5v-250h-148v213q0 110 -44.5 158.5t-145.5 48.5t-146 -48.5t-45 -158.5v-786q0 -110 45 -158.5t146 -48.5t145.5 48.5t44.5 158.5v247h148v-284q0 -303 -336 -303h-4q-336 0 -336 303z" />
<glyph unicode="d" horiz-adv-x="923" d="M127 0v1434h342q165 0 250.5 -76t85.5 -228v-827q0 -303 -336 -303h-342zM274 133h187q104 0 150 48t46 159v754q0 111 -46 158.5t-150 47.5h-187v-1167z" />
<glyph unicode="e" horiz-adv-x="790" d="M127 0v1434h580v-134h-433v-507h369v-131h-369v-529h439v-133h-586z" />
<glyph unicode="f" horiz-adv-x="743" d="M127 0v1434h571v-134h-424v-518h361v-131h-361v-651h-147z" />
<glyph unicode="g" horiz-adv-x="921" d="M119 287v860q0 150 86 226.5t250 76.5h16q164 0 250 -76.5t86 -226.5v-193h-148v156q0 111 -46 159t-150 48t-150.5 -48t-46.5 -159v-786q0 -111 46.5 -159t150.5 -48t150 48t46 159v264h-204v131h352v-432q0 -303 -336 -303h-16q-336 0 -336 303z" />
<glyph unicode="h" horiz-adv-x="952" d="M127 0v1434h147v-637h404v637h147v-1434h-147v662h-404v-662h-147z" />
<glyph unicode="i" horiz-adv-x="415" d="M135 0v1434h148v-1434h-148z" />
<glyph unicode="j" horiz-adv-x="565" d="M37 0v135h61q104 0 151.5 48.5t47.5 160.5v1090h147v-1131q0 -303 -342 -303h-65z" />
<glyph unicode="k" horiz-adv-x="880" d="M127 0v1434h147v-738l402 738h160l-310 -537l334 -897h-153l-271 739l-162 -278v-461h-147z" />
<glyph unicode="l" horiz-adv-x="718" d="M127 0v1434h147v-1299h408v-135h-555z" />
<glyph unicode="m" horiz-adv-x="1218" d="M127 0v1434h141l336 -949l340 949h148v-1434h-144v1073l-301 -840h-82l-301 840v-1073h-137z" />
<glyph unicode="n" horiz-adv-x="960" d="M127 0v1434h149l420 -1088v1088h138v-1434h-142l-428 1108v-1108h-137z" />
<glyph unicode="o" d="M119 287v860q0 303 336 303h16q336 0 336 -303v-860q0 -303 -336 -303h-16q-336 0 -336 303zM266 324q0 -111 46.5 -159t150.5 -48t150 48t46 159v786q0 111 -46 159t-150 48t-150.5 -48t-46.5 -159v-786z" />
<glyph unicode="p" horiz-adv-x="882" d="M127 0v1434h346q165 0 250.5 -76t85.5 -228v-239q0 -303 -336 -303h-199v-588h-147zM274 721h191q104 0 150.5 48t46.5 159v166q0 111 -46.5 158.5t-150.5 47.5h-191v-579z" />
<glyph unicode="q" d="M119 287v860q0 303 336 303h16q336 0 336 -303v-860q0 -271 -270 -299v-191h-140v189q-278 25 -278 301zM266 324q0 -111 46.5 -159t150.5 -48t150 48t46 159v786q0 111 -46 159t-150 48t-150.5 -48t-46.5 -159v-786z" />
<glyph unicode="r" horiz-adv-x="923" d="M127 0v1434h346q165 0 250.5 -76t85.5 -228v-223q0 -220 -182 -280l231 -627h-153l-220 604h-12h-199v-604h-147zM274 735h191q104 0 150.5 48t46.5 159v152q0 111 -46.5 158.5t-150.5 47.5h-191v-565z" />
<glyph unicode="s" horiz-adv-x="856" d="M98 283v237h146v-205q0 -102 44.5 -151t141.5 -49t141.5 49t44.5 151v115q0 69 -29 107t-106 81l-200 111q-99 56 -141 110t-42 144v172q0 146 87.5 220.5t240.5 74.5h4q153 0 240.5 -74.5t87.5 -220.5v-221h-146v188q0 103 -43.5 150t-140.5 47t-140.5 -47t-43.5 -150 v-100q0 -69 26 -102.5t103 -75.5l205 -113q90 -49 137 -110.5t47 -147.5v-190q0 -154 -82.5 -226.5t-247.5 -72.5h-4q-166 0 -248 71.5t-82 227.5z" />
<glyph unicode="t" horiz-adv-x="733" d="M33 1300v134h669v-134h-262v-1300h-147v1300h-260z" />
<glyph unicode="u" horiz-adv-x="917" d="M123 287v1147h147v-1110q0 -113 43 -160t146 -47t145.5 47t42.5 160v1110h148v-1147q0 -303 -332 -303h-8q-165 0 -248.5 73.5t-83.5 229.5z" />
<glyph unicode="v" horiz-adv-x="835" d="M41 1434h152l229 -1184l229 1184h144l-297 -1434h-160z" />
<glyph unicode="w" horiz-adv-x="1314" d="M45 1434h148l172 -1155l227 1155h139l227 -1155l172 1155h140l-236 -1434h-143l-232 1149l-231 -1149h-147z" />
<glyph unicode="x" horiz-adv-x="841" d="M33 0l303 739l-281 695h158l213 -564l199 564h153l-268 -701l299 -733h-158l-233 602l-232 -602h-153z" />
<glyph unicode="y" horiz-adv-x="847" d="M41 1434h154l229 -721l231 721h152l-309 -889v-545h-148v545z" />
<glyph unicode="z" horiz-adv-x="743" d="M53 0v106l467 1201h-442v127h600v-107l-467 -1200h481v-127h-639z" />
<glyph unicode="{" horiz-adv-x="630" d="M49 664v118q76 6 110 38.5t34 94.5v314q0 303 335 303h45v-131h-45q-99 0 -146.5 -46.5t-47.5 -162.5v-283q0 -73 -33 -118t-106 -66q73 -23 106 -67t33 -117v-299q0 -116 47.5 -162.5t146.5 -46.5h45v-131h-45q-335 0 -335 303v327q0 62 -34 94t-110 38z" />
<glyph unicode="|" horiz-adv-x="471" d="M168 -205v1843h135v-1843h-135z" />
<glyph unicode="}" horiz-adv-x="630" d="M57 33h45q99 0 147 46.5t48 162.5v299q0 73 33 117t106 67q-73 21 -106 66t-33 118v283q0 116 -48 162.5t-147 46.5h-45v131h45q336 0 336 -303v-314q0 -62 34 -94.5t110 -38.5v-118q-76 -6 -110 -38t-34 -94v-327q0 -303 -336 -303h-45v131z" />
<glyph unicode="~" horiz-adv-x="811" d="M74 604h110v23q0 55 21.5 82.5t54.5 27.5q29 0 66 -22.5t68.5 -50t76.5 -50t88 -22.5q73 0 125.5 54.5t52.5 162.5v39h-112v-23q0 -53 -20.5 -81.5t-53.5 -28.5q-28 0 -64 22.5t-66.5 50t-75.5 50t-89 22.5q-73 0 -127.5 -55t-54.5 -162v-39z" />
<glyph unicode="&#xa1;" horiz-adv-x="364" d="M106 0v221l19 873h115l16 -875v-219h-150zM106 1251v183h152v-183h-152z" />
<glyph unicode="&#xa2;" horiz-adv-x="843" d="M86 463v508q0 134 69.5 209.5t202.5 89.5v164h136v-164q131 -14 199.5 -90t68.5 -209v-115h-146v78q0 110 -45.5 159.5t-146.5 49.5t-147 -49.5t-46 -159.5v-434q0 -110 46 -159.5t147 -49.5q100 0 146 52t46 157v112h146v-149q0 -271 -268 -299v-164h-136v162 q-272 28 -272 301z" />
<glyph unicode="&#xa3;" horiz-adv-x="843" d="M47 133q87 43 114 156.5t27 361.5h-135v121h135v375q0 303 291 303h4q155 0 222 -79t67 -224v-217h-147v200q0 91 -29.5 139t-114.5 48t-115 -48t-30 -139v-358h252v-121h-252q0 -239 -27.5 -359t-105.5 -159h549v-133h-676z" />
<glyph unicode="&#xa5;" horiz-adv-x="847" d="M41 1434h154l229 -721l231 721h152l-264 -758h182v-88h-213l-14 -43v-88h227v-88h-227v-369h-148v369h-252v88h252v88l-14 43h-238v88h207z" />
<glyph unicode="&#xa6;" horiz-adv-x="471" d="M168 -205v778h135v-778h-135zM168 901v737h135v-737h-135z" />
<glyph unicode="&#xa7;" horiz-adv-x="860" d="M100 98v213h146v-180q0 -103 44.5 -152t141.5 -49t140.5 49t43.5 152v51q0 73 -48 122.5t-177 111.5q-165 81 -228 147t-63 164v209q37 -54 148 -113v-63q0 -73 40.5 -115t168.5 -102q163 -77 235 -152t72 -172v-121q0 -154 -82.5 -226.5t-247.5 -72.5h-4 q-166 0 -248 71.5t-82 227.5zM100 1133v104q0 146 87.5 220.5t240.5 74.5h4q153 0 240.5 -74.5t87.5 -220.5v-186h-146v153q0 103 -43.5 150t-140.5 47q-96 0 -139 -47t-43 -150v-39q0 -72 42.5 -115t170.5 -104q163 -77 233 -149t70 -172v-213q-37 65 -148 116v60 q0 73 -46 121t-167 106q-172 82 -237.5 151t-65.5 167z" />
<glyph unicode="&#xa8;" horiz-adv-x="901" d="M231 1546v172h146v-172h-146zM524 1546v172h146v-172h-146z" />
<glyph unicode="&#xa9;" horiz-adv-x="1292" d="M119 287v860q0 303 348 303h358q349 0 349 -303v-860q0 -303 -349 -303h-370q-167 0 -251.5 72t-84.5 231zM217 268q0 -94 58.5 -142t164.5 -48h412q105 0 163 48t58 142v897q0 94 -58 142.5t-163 48.5h-412q-106 0 -164.5 -48.5t-58.5 -142.5v-897zM399 424v586 q0 96 67.5 152.5t178.5 56.5h4q111 0 178.5 -56.5t67.5 -152.5v-168h-117v131q0 139 -131 139q-133 0 -133 -139v-512q0 -139 133 -139q131 0 131 139v155h117v-192q0 -99 -67 -154t-179 -55h-4q-113 0 -179.5 54t-66.5 155z" />
<glyph unicode="&#xaa;" horiz-adv-x="466" d="M57 664v79h353v-79h-353zM57 1008v61q0 73 39.5 111.5t110.5 38.5q36 0 67.5 -14.5t44.5 -41.5v115q0 82 -73 82h-23q-73 0 -73 -82v-18h-84v32q0 67 42.5 108.5t114.5 41.5h31q70 0 113 -42t43 -108v-434h-84v49q-30 -51 -119 -51q-72 0 -111 39.5t-39 112.5zM147 1016 q0 -80 74 -80h25q29 0 51 19t22 61v39q0 42 -22 62t-51 20h-25q-74 0 -74 -82v-39z" />
<glyph unicode="&#xab;" horiz-adv-x="806" d="M33 682l364 -336v154l-247 225l247 225v154l-364 -336v-86zM381 682l364 -336v154l-247 225l247 225v154l-364 -336v-86z" />
<glyph unicode="&#xad;" horiz-adv-x="565" d="M53 672v123h459v-123h-459z" />
<glyph unicode="&#xae;" horiz-adv-x="673" d="M59 840v440q0 80 47.5 123t139.5 43h184q90 0 137 -44.5t47 -121.5v-440q0 -78 -47 -123t-137 -45h-190q-88 0 -134.5 45t-46.5 123zM125 829q0 -44 27.5 -71t78.5 -27h211q51 0 79 27t28 71v461q0 44 -28 70t-79 26h-211q-51 0 -78.5 -26t-27.5 -70v-461zM217 807v504 h125q57 0 88 -27.5t31 -79.5v-90q0 -72 -55 -94l71 -213h-67l-64 201h-4h-59v-201h-66zM283 1067h57q55 0 55 59v66q0 57 -55 57h-57v-182z" />
<glyph unicode="&#xaf;" horiz-adv-x="790" d="M164 1567v123h463v-123h-463z" />
<glyph unicode="&#xb0;" horiz-adv-x="557" d="M37 1186q0 124 64 194t178 70t176.5 -69.5t62.5 -194.5q0 -126 -62.5 -195t-176.5 -69t-178 69t-64 195zM131 1186q0 -83 39.5 -129.5t108.5 -46.5t107 46.5t38 129.5t-38 129.5t-107 46.5t-108.5 -46.5t-39.5 -129.5z" />
<glyph unicode="&#xb1;" horiz-adv-x="860" d="M106 287v116h648v-116h-648zM106 799v116h267v265h116v-265h265v-116h-265v-267h-116v267h-267z" />
<glyph unicode="&#xb4;" horiz-adv-x="927" d="M342 1546l141 264h183l-209 -264h-115z" />
<glyph unicode="&#xb6;" horiz-adv-x="1159" d="M74 905v225q0 152 85.5 228t250.5 76h622v-1434h-147v1300h-129v-1300h-148v602h-198q-336 0 -336 303z" />
<glyph unicode="&#xb7;" horiz-adv-x="339" d="M94 639v182h152v-182h-152z" />
<glyph unicode="&#xb8;" horiz-adv-x="720" d="M188 -160h84q42 0 57 14.5t15 55.5v90h119v-98q0 -92 -36 -130t-116 -38q-53 0 -96 16z" />
<glyph unicode="&#xba;" horiz-adv-x="477" d="M57 664v79h363v-79h-363zM57 1022v250q0 80 45.5 125t120.5 45h33q73 0 118.5 -45t45.5 -125v-250q0 -80 -45.5 -125t-118.5 -45h-33q-75 0 -120.5 45t-45.5 125zM145 1036q0 -102 82 -102h19q84 0 84 102v221q0 103 -84 103h-19q-82 0 -82 -103v-221z" />
<glyph unicode="&#xbb;" horiz-adv-x="806" d="M61 346l365 336v86l-365 336v-154l248 -225l-248 -225v-154zM410 346l364 336v86l-364 336v-154l247 -225l-247 -225v-154z" />
<glyph unicode="&#xbc;" horiz-adv-x="1026" d="M94 565v774q36 42 45 95h64v-869h-109zM123 0l520 1434h94l-520 -1434h-94zM498 207v96l231 565h133v-559h72v-102h-72v-207h-112v207h-252zM596 309h154v387z" />
<glyph unicode="&#xbd;" horiz-adv-x="1067" d="M94 565v774q36 42 45 95h64v-869h-109zM123 0l520 1434h94l-520 -1434h-94zM571 0v182q0 76 38.5 130t121.5 126q78 64 103.5 95t25.5 73v70q0 53 -21.5 77.5t-68.5 24.5q-45 0 -65.5 -24.5t-20.5 -77.5v-131h-109v147q0 91 50 138t147 47h2q98 0 148.5 -47t50.5 -138 v-88q0 -21 -4.5 -40.5t-9.5 -34.5t-18.5 -33.5t-21 -28.5t-28 -29.5t-28.5 -26t-33.5 -28t-32.5 -27.5q-64 -54 -88.5 -93.5t-24.5 -82.5v-82h289v-98h-402z" />
<glyph unicode="&#xbe;" horiz-adv-x="1261" d="M94 748v126h109v-110q0 -57 22 -82t66 -25h10q44 0 66 25t22 82v125q0 78 -84 78h-102v98h90q51 0 73.5 20.5t22.5 71.5v82q0 57 -22 82t-66 25h-12q-44 0 -65 -24.5t-21 -82.5v-90h-109v106q0 191 197 191h10q197 0 197 -191v-104q0 -107 -72 -131q72 -24 72 -123v-149 q0 -87 -47 -139t-140 -52h-30q-93 0 -140 52t-47 139zM356 0l521 1434h94l-520 -1434h-95zM733 207v96l232 565h131v-559h71v-102h-71v-207h-111v207h-252zM829 309h156v387z" />
<glyph unicode="&#xbf;" horiz-adv-x="782" d="M78 279v167q0 47 12 87.5t36 72.5t44 52.5t51 46.5q63 49 90 100t27 131v156h123v-213q0 -146 -137 -269q-51 -43 -77 -84t-26 -96v-127q0 -105 43 -148.5t131 -43.5t128 43t40 149v197h142v-221q0 -152 -75 -223.5t-237 -71.5h-4q-162 0 -236.5 71.5t-74.5 223.5z M324 1251v183h151v-183h-151z" />
<glyph unicode="&#xc0;" horiz-adv-x="868" d="M41 0l303 1434h176l307 -1434h-151l-72 354h-348l-72 -354h-143zM182 1810h183l141 -264h-115zM281 483h299l-150 746z" />
<glyph unicode="&#xc1;" horiz-adv-x="868" d="M41 0l303 1434h176l307 -1434h-151l-72 354h-348l-72 -354h-143zM281 483h299l-150 746zM360 1546l142 264h182l-209 -264h-115z" />
<glyph unicode="&#xc2;" horiz-adv-x="868" d="M41 0l303 1434h176l307 -1434h-151l-72 354h-348l-72 -354h-143zM188 1546l177 264h135l176 -264h-135l-109 166l-108 -166h-136zM281 483h299l-150 746z" />
<glyph unicode="&#xc3;" horiz-adv-x="868" d="M41 0l303 1434h176l307 -1434h-151l-72 354h-348l-72 -354h-143zM131 1554v37q0 99 48.5 151t119.5 52q42 0 81 -21t63.5 -46.5t54.5 -46.5t57 -21q68 0 68 104v23h110v-37q0 -100 -46.5 -152.5t-115.5 -52.5q-42 0 -81.5 21t-65 46.5t-57.5 46.5t-60 21q-67 0 -67 -104 v-21h-109zM281 483h299l-150 746z" />
<glyph unicode="&#xc4;" horiz-adv-x="868" d="M41 0l303 1434h176l307 -1434h-151l-72 354h-348l-72 -354h-143zM213 1546v172h145v-172h-145zM281 483h299l-150 746zM506 1546v172h145v-172h-145z" />
<glyph unicode="&#xc5;" horiz-adv-x="868" d="M41 0l303 1434h176l307 -1434h-151l-72 354h-348l-72 -354h-143zM260 1692q0 72 47 114.5t125 42.5q77 0 123.5 -42.5t46.5 -114.5t-46.5 -115t-123.5 -43q-78 0 -125 43t-47 115zM281 483h299l-150 746zM350 1692q0 -38 22.5 -59t59.5 -21q36 0 58 20.5t22 59.5 t-22 59.5t-58 20.5q-37 0 -59.5 -21t-22.5 -59z" />
<glyph unicode="&#xc6;" horiz-adv-x="1286" d="M29 0l452 1434h721v-134h-432v-507h369v-131h-369v-529h438v-133h-585v354h-336l-111 -354h-147zM326 481h297v819h-43z" />
<glyph unicode="&#xc7;" horiz-adv-x="905" d="M119 287v860q0 150 86 226.5t250 76.5h4q164 0 250 -76.5t86 -226.5v-250h-148v213q0 110 -44.5 158.5t-145.5 48.5t-146 -48.5t-45 -158.5v-786q0 -110 45 -158.5t146 -48.5t145.5 48.5t44.5 158.5v247h148v-284q0 -279 -287 -301v-84q0 -92 -36 -130t-116 -38 q-53 0 -96 16l-27 90h84q42 0 57 14.5t15 55.5v78q-270 25 -270 299z" />
<glyph unicode="&#xc8;" horiz-adv-x="790" d="M127 0v1434h580v-134h-433v-507h369v-131h-369v-529h439v-133h-586zM164 1810h182l141 -264h-114z" />
<glyph unicode="&#xc9;" horiz-adv-x="790" d="M127 0v1434h580v-134h-433v-507h369v-131h-369v-529h439v-133h-586zM342 1546l141 264h183l-209 -264h-115z" />
<glyph unicode="&#xca;" horiz-adv-x="790" d="M127 0v1434h580v-134h-433v-507h369v-131h-369v-529h439v-133h-586zM170 1546h135l109 166l108 -166h135l-176 264h-135z" />
<glyph unicode="&#xcb;" horiz-adv-x="790" d="M127 0v1434h580v-134h-433v-507h369v-131h-369v-529h439v-133h-586zM195 1546v172h145v-172h-145zM487 1546v172h146v-172h-146z" />
<glyph unicode="&#xcc;" horiz-adv-x="415" d="M-41 1810h182l142 -264h-115zM135 0v1434h148v-1434h-148z" />
<glyph unicode="&#xcd;" horiz-adv-x="415" d="M135 0v1434h148v-1434h-148zM137 1546l142 264h182l-209 -264h-115z" />
<glyph unicode="&#xce;" horiz-adv-x="415" d="M-35 1546h135l109 166l108 -166h136l-177 264h-135zM135 0v1434h148v-1434h-148z" />
<glyph unicode="&#xcf;" horiz-adv-x="415" d="M-10 1546v172h145v-172h-145zM135 0v1434h148v-1434h-148zM283 1546v172h145v-172h-145z" />
<glyph unicode="&#xd0;" horiz-adv-x="944" d="M41 664v131h106v639h342q165 0 250.5 -76t85.5 -228v-827q0 -303 -336 -303h-342v664h-106zM295 133h186q104 0 150.5 48t46.5 159v754q0 111 -46.5 158.5t-150.5 47.5h-186v-505h225v-131h-225v-531z" />
<glyph unicode="&#xd1;" horiz-adv-x="960" d="M127 0v1434h149l420 -1088v1088h138v-1434h-142l-428 1108v-1108h-137zM184 1554h109v21q0 104 67 104q28 0 60 -21t57.5 -46.5t65.5 -46.5t82 -21q69 0 115 52.5t46 152.5v37h-110v-23q0 -104 -68 -104q-27 0 -57 21t-54.5 46.5t-63.5 46.5t-81 21q-71 0 -119.5 -52 t-48.5 -151v-37z" />
<glyph unicode="&#xd2;" d="M119 287v860q0 303 336 303h16q336 0 336 -303v-860q0 -303 -336 -303h-16q-336 0 -336 303zM213 1810h182l142 -264h-115zM266 324q0 -111 46.5 -159t150.5 -48t150 48t46 159v786q0 111 -46 159t-150 48t-150.5 -48t-46.5 -159v-786z" />
<glyph unicode="&#xd3;" d="M119 287v860q0 303 336 303h16q336 0 336 -303v-860q0 -303 -336 -303h-16q-336 0 -336 303zM266 324q0 -111 46.5 -159t150.5 -48t150 48t46 159v786q0 111 -46 159t-150 48t-150.5 -48t-46.5 -159v-786zM391 1546l141 264h183l-209 -264h-115z" />
<glyph unicode="&#xd4;" d="M119 287v860q0 303 336 303h16q336 0 336 -303v-860q0 -303 -336 -303h-16q-336 0 -336 303zM219 1546h135l109 166l108 -166h136l-177 264h-135zM266 324q0 -111 46.5 -159t150.5 -48t150 48t46 159v786q0 111 -46 159t-150 48t-150.5 -48t-46.5 -159v-786z" />
<glyph unicode="&#xd5;" d="M119 287v860q0 303 336 303h16q336 0 336 -303v-860q0 -303 -336 -303h-16q-336 0 -336 303zM162 1554h108v21q0 104 68 104q28 0 60 -21t57.5 -46.5t65 -46.5t81.5 -21q69 0 115.5 52.5t46.5 152.5v37h-111v-23q0 -104 -67 -104q-27 0 -57 21t-54.5 46.5t-63.5 46.5 t-81 21q-71 0 -119.5 -52t-48.5 -151v-37zM266 324q0 -111 46.5 -159t150.5 -48t150 48t46 159v786q0 111 -46 159t-150 48t-150.5 -48t-46.5 -159v-786z" />
<glyph unicode="&#xd6;" d="M119 287v860q0 303 336 303h16q336 0 336 -303v-860q0 -303 -336 -303h-16q-336 0 -336 303zM244 1546v172h145v-172h-145zM266 324q0 -111 46.5 -159t150.5 -48t150 48t46 159v786q0 111 -46 159t-150 48t-150.5 -48t-46.5 -159v-786zM537 1546v172h145v-172h-145z" />
<glyph unicode="&#xd7;" horiz-adv-x="860" d="M160 545l190 186l-190 187l84 81l184 -188l188 190l82 -81l-190 -189l190 -186l-82 -84l-188 190l-184 -188z" />
<glyph unicode="&#xd8;" d="M119 287v860q0 303 336 303h16q336 0 336 -303v-860q0 -303 -336 -303h-16q-336 0 -336 303zM266 324q0 -86 29 -136l252 1119q-42 10 -84 10q-104 0 -150.5 -48t-46.5 -159v-786zM379 127q42 -10 84 -10q104 0 150 48t46 159v786q0 87 -28 135z" />
<glyph unicode="&#xd9;" horiz-adv-x="917" d="M123 287v1147h147v-1110q0 -113 43 -160t146 -47t145.5 47t42.5 160v1110h148v-1147q0 -303 -332 -303h-8q-165 0 -248.5 73.5t-83.5 229.5zM209 1810h182l141 -264h-114z" />
<glyph unicode="&#xda;" horiz-adv-x="917" d="M123 287v1147h147v-1110q0 -113 43 -160t146 -47t145.5 47t42.5 160v1110h148v-1147q0 -303 -332 -303h-8q-165 0 -248.5 73.5t-83.5 229.5zM387 1546l141 264h183l-209 -264h-115z" />
<glyph unicode="&#xdb;" horiz-adv-x="917" d="M123 287v1147h147v-1110q0 -113 43 -160t146 -47t145.5 47t42.5 160v1110h148v-1147q0 -303 -332 -303h-8q-165 0 -248.5 73.5t-83.5 229.5zM215 1546h135l109 166l108 -166h135l-176 264h-135z" />
<glyph unicode="&#xdc;" horiz-adv-x="917" d="M123 287v1147h147v-1110q0 -113 43 -160t146 -47t145.5 47t42.5 160v1110h148v-1147q0 -303 -332 -303h-8q-165 0 -248.5 73.5t-83.5 229.5zM240 1546v172h145v-172h-145zM532 1546v172h146v-172h-146z" />
<glyph unicode="&#xdd;" horiz-adv-x="847" d="M41 1434h154l229 -721l231 721h152l-309 -889v-545h-148v545zM352 1546l142 264h182l-209 -264h-115z" />
<glyph unicode="&#xde;" horiz-adv-x="882" d="M127 0v1434h147v-283h199q336 0 336 -303v-240q0 -303 -336 -303h-199v-305h-147zM274 438h191q104 0 150.5 48t46.5 159v166q0 111 -46.5 159t-150.5 48h-191v-580z" />
<glyph unicode="&#xdf;" horiz-adv-x="1712" d="M98 283v237h146v-205q0 -102 44.5 -151t141.5 -49t141.5 49t44.5 151v115q0 69 -29 107t-106 81l-200 111q-99 56 -141 110t-42 144v172q0 146 87.5 220.5t240.5 74.5h4q153 0 240.5 -74.5t87.5 -220.5v-221h-146v188q0 103 -43.5 150t-140.5 47t-140.5 -47t-43.5 -150 v-100q0 -69 26 -102.5t103 -75.5l205 -113q90 -49 137 -110.5t47 -147.5v-190q0 -154 -82.5 -226.5t-247.5 -72.5h-4q-166 0 -248 71.5t-82 227.5zM954 283v237h146v-205q0 -102 44.5 -151t141.5 -49t142 49t45 151v115q0 69 -29 106.5t-107 81.5l-200 111q-99 56 -141 110 t-42 144v172q0 146 87.5 220.5t240.5 74.5h4q153 0 240.5 -74.5t87.5 -220.5v-221h-146v188q0 103 -43.5 150t-140.5 47t-140.5 -47t-43.5 -150v-100q0 -69 26 -102.5t103 -75.5l205 -113q90 -49 137 -110.5t47 -147.5v-190q0 -154 -82.5 -226.5t-247.5 -72.5h-4 q-166 0 -248 71.5t-82 227.5z" />
<glyph unicode="&#xe0;" horiz-adv-x="868" d="M41 0l303 1434h176l307 -1434h-151l-72 354h-348l-72 -354h-143zM182 1810h183l141 -264h-115zM281 483h299l-150 746z" />
<glyph unicode="&#xe1;" horiz-adv-x="868" d="M41 0l303 1434h176l307 -1434h-151l-72 354h-348l-72 -354h-143zM281 483h299l-150 746zM360 1546l142 264h182l-209 -264h-115z" />
<glyph unicode="&#xe2;" horiz-adv-x="868" d="M41 0l303 1434h176l307 -1434h-151l-72 354h-348l-72 -354h-143zM188 1546l177 264h135l176 -264h-135l-109 166l-108 -166h-136zM281 483h299l-150 746z" />
<glyph unicode="&#xe3;" horiz-adv-x="868" d="M41 0l303 1434h176l307 -1434h-151l-72 354h-348l-72 -354h-143zM131 1554v37q0 99 48.5 151t119.5 52q42 0 81 -21t63.5 -46.5t54.5 -46.5t57 -21q68 0 68 104v23h110v-37q0 -100 -46.5 -152.5t-115.5 -52.5q-42 0 -81.5 21t-65 46.5t-57.5 46.5t-60 21q-67 0 -67 -104 v-21h-109zM281 483h299l-150 746z" />
<glyph unicode="&#xe4;" horiz-adv-x="868" d="M41 0l303 1434h176l307 -1434h-151l-72 354h-348l-72 -354h-143zM213 1546v172h145v-172h-145zM281 483h299l-150 746zM506 1546v172h145v-172h-145z" />
<glyph unicode="&#xe5;" horiz-adv-x="868" d="M41 0l303 1434h176l307 -1434h-151l-72 354h-348l-72 -354h-143zM260 1692q0 72 47 114.5t125 42.5q77 0 123.5 -42.5t46.5 -114.5t-46.5 -115t-123.5 -43q-78 0 -125 43t-47 115zM281 483h299l-150 746zM350 1692q0 -38 22.5 -59t59.5 -21q36 0 58 20.5t22 59.5 t-22 59.5t-58 20.5q-37 0 -59.5 -21t-22.5 -59z" />
<glyph unicode="&#xe6;" horiz-adv-x="1286" d="M29 0l452 1434h721v-134h-432v-507h369v-131h-369v-529h438v-133h-585v354h-336l-111 -354h-147zM326 481h297v819h-43z" />
<glyph unicode="&#xe7;" horiz-adv-x="905" d="M119 287v860q0 150 86 226.5t250 76.5h4q164 0 250 -76.5t86 -226.5v-250h-148v213q0 110 -44.5 158.5t-145.5 48.5t-146 -48.5t-45 -158.5v-786q0 -110 45 -158.5t146 -48.5t145.5 48.5t44.5 158.5v247h148v-284q0 -279 -287 -301v-84q0 -92 -36 -130t-116 -38 q-53 0 -96 16l-27 90h84q42 0 57 14.5t15 55.5v78q-270 25 -270 299z" />
<glyph unicode="&#xe8;" horiz-adv-x="790" d="M127 0v1434h580v-134h-433v-507h369v-131h-369v-529h439v-133h-586zM164 1810h182l141 -264h-114z" />
<glyph unicode="&#xe9;" horiz-adv-x="790" d="M127 0v1434h580v-134h-433v-507h369v-131h-369v-529h439v-133h-586zM342 1546l141 264h183l-209 -264h-115z" />
<glyph unicode="&#xea;" horiz-adv-x="790" d="M127 0v1434h580v-134h-433v-507h369v-131h-369v-529h439v-133h-586zM170 1546h135l109 166l108 -166h135l-176 264h-135z" />
<glyph unicode="&#xeb;" horiz-adv-x="790" d="M127 0v1434h580v-134h-433v-507h369v-131h-369v-529h439v-133h-586zM195 1546v172h145v-172h-145zM487 1546v172h146v-172h-146z" />
<glyph unicode="&#xec;" horiz-adv-x="415" d="M-41 1810h182l142 -264h-115zM135 0v1434h148v-1434h-148z" />
<glyph unicode="&#xed;" horiz-adv-x="415" d="M135 0v1434h148v-1434h-148zM137 1546l142 264h182l-209 -264h-115z" />
<glyph unicode="&#xee;" horiz-adv-x="415" d="M-35 1546h135l109 166l108 -166h136l-177 264h-135zM135 0v1434h148v-1434h-148z" />
<glyph unicode="&#xef;" horiz-adv-x="415" d="M-10 1546v172h145v-172h-145zM135 0v1434h148v-1434h-148zM283 1546v172h145v-172h-145z" />
<glyph unicode="&#xf0;" horiz-adv-x="944" d="M41 664v131h106v639h342q165 0 250.5 -76t85.5 -228v-827q0 -303 -336 -303h-342v664h-106zM295 133h186q104 0 150.5 48t46.5 159v754q0 111 -46.5 158.5t-150.5 47.5h-186v-505h225v-131h-225v-531z" />
<glyph unicode="&#xf1;" horiz-adv-x="960" d="M127 0v1434h149l420 -1088v1088h138v-1434h-142l-428 1108v-1108h-137zM184 1554h109v21q0 104 67 104q28 0 60 -21t57.5 -46.5t65.5 -46.5t82 -21q69 0 115 52.5t46 152.5v37h-110v-23q0 -104 -68 -104q-27 0 -57 21t-54.5 46.5t-63.5 46.5t-81 21q-71 0 -119.5 -52 t-48.5 -151v-37z" />
<glyph unicode="&#xf2;" d="M119 287v860q0 303 336 303h16q336 0 336 -303v-860q0 -303 -336 -303h-16q-336 0 -336 303zM213 1810h182l142 -264h-115zM266 324q0 -111 46.5 -159t150.5 -48t150 48t46 159v786q0 111 -46 159t-150 48t-150.5 -48t-46.5 -159v-786z" />
<glyph unicode="&#xf3;" d="M119 287v860q0 303 336 303h16q336 0 336 -303v-860q0 -303 -336 -303h-16q-336 0 -336 303zM266 324q0 -111 46.5 -159t150.5 -48t150 48t46 159v786q0 111 -46 159t-150 48t-150.5 -48t-46.5 -159v-786zM391 1546l141 264h183l-209 -264h-115z" />
<glyph unicode="&#xf4;" d="M119 287v860q0 303 336 303h16q336 0 336 -303v-860q0 -303 -336 -303h-16q-336 0 -336 303zM219 1546h135l109 166l108 -166h136l-177 264h-135zM266 324q0 -111 46.5 -159t150.5 -48t150 48t46 159v786q0 111 -46 159t-150 48t-150.5 -48t-46.5 -159v-786z" />
<glyph unicode="&#xf5;" d="M119 287v860q0 303 336 303h16q336 0 336 -303v-860q0 -303 -336 -303h-16q-336 0 -336 303zM162 1554h108v21q0 104 68 104q28 0 60 -21t57.5 -46.5t65 -46.5t81.5 -21q69 0 115.5 52.5t46.5 152.5v37h-111v-23q0 -104 -67 -104q-27 0 -57 21t-54.5 46.5t-63.5 46.5 t-81 21q-71 0 -119.5 -52t-48.5 -151v-37zM266 324q0 -111 46.5 -159t150.5 -48t150 48t46 159v786q0 111 -46 159t-150 48t-150.5 -48t-46.5 -159v-786z" />
<glyph unicode="&#xf6;" d="M119 287v860q0 303 336 303h16q336 0 336 -303v-860q0 -303 -336 -303h-16q-336 0 -336 303zM244 1546v172h145v-172h-145zM266 324q0 -111 46.5 -159t150.5 -48t150 48t46 159v786q0 111 -46 159t-150 48t-150.5 -48t-46.5 -159v-786zM537 1546v172h145v-172h-145z" />
<glyph unicode="&#xf7;" horiz-adv-x="860" d="M106 674v117h648v-117h-648zM356 295v166h148v-166h-148zM356 1001v166h148v-166h-148z" />
<glyph unicode="&#xf8;" d="M119 287v860q0 303 336 303h16q336 0 336 -303v-860q0 -303 -336 -303h-16q-336 0 -336 303zM266 324q0 -86 29 -136l252 1119q-42 10 -84 10q-104 0 -150.5 -48t-46.5 -159v-786zM379 127q42 -10 84 -10q104 0 150 48t46 159v786q0 87 -28 135z" />
<glyph unicode="&#xf9;" horiz-adv-x="917" d="M123 287v1147h147v-1110q0 -113 43 -160t146 -47t145.5 47t42.5 160v1110h148v-1147q0 -303 -332 -303h-8q-165 0 -248.5 73.5t-83.5 229.5zM209 1810h182l141 -264h-114z" />
<glyph unicode="&#xfa;" horiz-adv-x="917" d="M123 287v1147h147v-1110q0 -113 43 -160t146 -47t145.5 47t42.5 160v1110h148v-1147q0 -303 -332 -303h-8q-165 0 -248.5 73.5t-83.5 229.5zM387 1546l141 264h183l-209 -264h-115z" />
<glyph unicode="&#xfb;" horiz-adv-x="917" d="M123 287v1147h147v-1110q0 -113 43 -160t146 -47t145.5 47t42.5 160v1110h148v-1147q0 -303 -332 -303h-8q-165 0 -248.5 73.5t-83.5 229.5zM215 1546h135l109 166l108 -166h135l-176 264h-135z" />
<glyph unicode="&#xfc;" horiz-adv-x="917" d="M123 287v1147h147v-1110q0 -113 43 -160t146 -47t145.5 47t42.5 160v1110h148v-1147q0 -303 -332 -303h-8q-165 0 -248.5 73.5t-83.5 229.5zM240 1546v172h145v-172h-145zM532 1546v172h146v-172h-146z" />
<glyph unicode="&#xfd;" horiz-adv-x="847" d="M41 1434h154l229 -721l231 721h152l-309 -889v-545h-148v545zM352 1546l142 264h182l-209 -264h-115z" />
<glyph unicode="&#xfe;" horiz-adv-x="882" d="M127 0v1434h147v-283h199q336 0 336 -303v-240q0 -303 -336 -303h-199v-305h-147zM274 438h191q104 0 150.5 48t46.5 159v166q0 111 -46.5 159t-150.5 48h-191v-580z" />
<glyph unicode="&#xff;" horiz-adv-x="847" d="M41 1434h154l229 -721l231 721h152l-309 -889v-545h-148v545zM205 1546v172h145v-172h-145zM498 1546v172h145v-172h-145z" />
<glyph unicode="&#x152;" horiz-adv-x="1314" d="M119 303v827q0 152 85.5 228t250.5 76h776v-134h-432v-507h368v-131h-368v-529h438v-133h-782q-336 0 -336 303zM266 340q0 -111 46.5 -159t150.5 -48h186v1167h-186q-104 0 -150.5 -47.5t-46.5 -158.5v-754z" />
<glyph unicode="&#x153;" horiz-adv-x="1314" d="M119 303v827q0 152 85.5 228t250.5 76h776v-134h-432v-507h368v-131h-368v-529h438v-133h-782q-336 0 -336 303zM266 340q0 -111 46.5 -159t150.5 -48h186v1167h-186q-104 0 -150.5 -47.5t-46.5 -158.5v-754z" />
<glyph unicode="&#x178;" horiz-adv-x="847" d="M41 1434h154l229 -721l231 721h152l-309 -889v-545h-148v545zM205 1546v172h145v-172h-145zM498 1546v172h145v-172h-145z" />
<glyph unicode="&#x2c6;" horiz-adv-x="892" d="M203 1546h135l108 166l109 -166h135l-176 264h-135z" />
<glyph unicode="&#x2dc;" horiz-adv-x="995" d="M197 1554h108v21q0 104 68 104q28 0 60 -21t57.5 -46.5t65 -46.5t81.5 -21q69 0 115.5 52.5t46.5 152.5v37h-111v-23q0 -104 -67 -104q-27 0 -57 21t-54.5 46.5t-63.5 46.5t-81 21q-71 0 -119.5 -52t-48.5 -151v-37z" />
<glyph unicode="&#x2000;" horiz-adv-x="924" />
<glyph unicode="&#x2001;" horiz-adv-x="1849" />
<glyph unicode="&#x2002;" horiz-adv-x="924" />
<glyph unicode="&#x2003;" horiz-adv-x="1849" />
<glyph unicode="&#x2004;" horiz-adv-x="616" />
<glyph unicode="&#x2005;" horiz-adv-x="462" />
<glyph unicode="&#x2006;" horiz-adv-x="308" />
<glyph unicode="&#x2007;" horiz-adv-x="308" />
<glyph unicode="&#x2008;" horiz-adv-x="231" />
<glyph unicode="&#x2009;" horiz-adv-x="369" />
<glyph unicode="&#x200a;" horiz-adv-x="102" />
<glyph unicode="&#x2010;" horiz-adv-x="565" d="M53 672v123h459v-123h-459z" />
<glyph unicode="&#x2011;" horiz-adv-x="565" d="M53 672v123h459v-123h-459z" />
<glyph unicode="&#x2012;" horiz-adv-x="565" d="M53 672v123h459v-123h-459z" />
<glyph unicode="&#x2013;" horiz-adv-x="729" d="M53 672v123h623v-123h-623z" />
<glyph unicode="&#x2014;" horiz-adv-x="1036" d="M53 672v123h930v-123h-930z" />
<glyph unicode="&#x2018;" horiz-adv-x="339" d="M94 1018v135q0 168 88 299l60 -31q-26 -42 -44.5 -104.5t-21.5 -116.5h70v-182h-152z" />
<glyph unicode="&#x2019;" horiz-adv-x="339" d="M94 1251v183h152v-136q0 -168 -88 -299l-60 31q26 42 44.5 104.5t21.5 116.5h-70z" />
<glyph unicode="&#x201a;" horiz-adv-x="339" d="M94 0v182h152v-135q0 -168 -88 -299l-60 31q26 42 44.5 104.5t21.5 116.5h-70z" />
<glyph unicode="&#x201c;" horiz-adv-x="573" d="M94 1018v135q0 168 88 299l60 -31q-26 -42 -44.5 -104.5t-21.5 -116.5h70v-182h-152zM328 1018v135q0 168 88 299l59 -31q-26 -42 -44 -104t-21 -117h69v-182h-151z" />
<glyph unicode="&#x201d;" horiz-adv-x="573" d="M94 1251v183h152v-136q0 -168 -88 -299l-60 31q26 42 44.5 104.5t21.5 116.5h-70zM328 1251v183h151v-136q0 -168 -88 -299l-59 31q26 42 44 104t21 117h-69z" />
<glyph unicode="&#x201e;" horiz-adv-x="573" d="M94 0v182h152v-135q0 -168 -88 -299l-60 31q26 42 44.5 104.5t21.5 116.5h-70zM328 0v182h151v-135q0 -168 -88 -299l-59 31q26 42 44 104t21 117h-69z" />
<glyph unicode="&#x2022;" horiz-adv-x="579" d="M156 729q0 75 33.5 108t101.5 33t101.5 -33t33.5 -108t-33.5 -108t-101.5 -33t-101.5 33t-33.5 108z" />
<glyph unicode="&#x2026;" horiz-adv-x="1091" d="M94 0v182h152v-182h-152zM469 0v182h152v-182h-152zM846 0v182h151v-182h-151z" />
<glyph unicode="&#x202f;" horiz-adv-x="369" />
<glyph unicode="&#x2039;" horiz-adv-x="458" d="M33 682l364 -336v154l-247 225l247 225v154l-364 -336v-86z" />
<glyph unicode="&#x203a;" horiz-adv-x="458" d="M61 346l365 336v86l-365 336v-154l248 -225l-248 -225v-154z" />
<glyph unicode="&#x205f;" horiz-adv-x="462" />
<glyph unicode="&#x20ac;" d="M8 580v88h131v131h-131v88h131v260q0 150 86 226.5t250 76.5h4q164 0 250 -76.5t86 -226.5v-250h-147v213q0 110 -45 158.5t-146 48.5t-145.5 -48.5t-44.5 -158.5v-223h260v-88h-260v-131h260v-88h-260v-256q0 -110 44.5 -158.5t145.5 -48.5t146 48.5t45 158.5v247h147 v-284q0 -303 -336 -303h-4q-336 0 -336 303v293h-131z" />
<glyph unicode="&#x2122;" horiz-adv-x="790" d="M35 1364v70h262v-70h-92v-483h-78v483h-92zM360 881v553h72l115 -332l112 332h76v-553h-76v356l-92 -264h-39l-92 264v-356h-76z" />
<glyph unicode="&#x25fc;" horiz-adv-x="1433" d="M0 0v1434h1434v-1434h-1434z" />
</font>
</defs>
</svg>
