<?xml version="1.0" standalone="no"?>
<!DOCTYPE svg PUBLIC "-//W3C//DTD SVG 1.1//EN" "http://www.w3.org/Graphics/SVG/1.1/DTD/svg11.dtd" >
<svg xmlns="http://www.w3.org/2000/svg" xmlns:xlink="http://www.w3.org/1999/xlink" version="1.1">
<metadata></metadata>
<defs>
<font id="riftbold" horiz-adv-x="925" >
<font-face units-per-em="2048" ascent="1597" descent="-451" />
<missing-glyph horiz-adv-x="327" />
<glyph horiz-adv-x="0" />
<glyph horiz-adv-x="682" />
<glyph unicode=" "  horiz-adv-x="327" />
<glyph unicode="&#x09;" horiz-adv-x="327" />
<glyph unicode="&#xa0;" horiz-adv-x="327" />
<glyph unicode="!" horiz-adv-x="397" d="M80 1212v222h237v-220l-30 -839h-176zM82 0v266h233v-266h-233z" />
<glyph unicode="&#x22;" horiz-adv-x="735" d="M41 885l86 549h242l-197 -549h-131zM387 885l86 549h242l-197 -549h-131z" />
<glyph unicode="#" horiz-adv-x="1224" d="M20 397v185h246l60 270h-224v184h267l90 398h203l-91 -398h228l90 398h203l-91 -398h203v-184h-246l-59 -270h223v-185h-266l-90 -397h-203l90 397h-227l-90 -397h-203l90 397h-203zM469 582h227l60 270h-228z" />
<glyph unicode="$" horiz-adv-x="856" d="M74 283v249h233v-217q0 -64 33 -95.5t90 -31.5t90 31.5t33 95.5v113q0 56 -20 88.5t-74 61.5l-166 94q-117 67 -168 128.5t-51 166.5v188q0 126 67.5 196.5t184.5 90.5v151h211v-151q113 -21 179 -92.5t66 -194.5v-233h-233v200q0 123 -121 123t-121 -123v-98 q0 -54 20 -84.5t72 -60.5l168 -95q117 -66 168 -127t51 -168v-206q0 -254 -249 -291v-152h-211v150q-123 18 -187.5 88t-64.5 205z" />
<glyph unicode="%" horiz-adv-x="1046" d="M61 1001v271q0 86 50 128t129 42h32q77 0 127 -42t50 -128v-271q0 -86 -50 -128t-127 -42h-32q-79 0 -129 42t-50 128zM123 0l670 1434h131l-670 -1434h-131zM193 1026q0 -70 53 -70h18q53 0 53 70v221q0 70 -53 70h-18q-53 0 -53 -70v-221zM598 162v270q0 86 49.5 128 t128.5 42h33q77 0 126.5 -42t49.5 -128v-270q0 -86 -49.5 -128t-126.5 -42h-33q-79 0 -128.5 42t-49.5 128zM729 186q0 -69 53 -69h19q53 0 53 69v222q0 69 -53 69h-19q-53 0 -53 -69v-222z" />
<glyph unicode="&#x26;" horiz-adv-x="948" d="M74 270v320q0 75 26.5 134.5t71.5 94.5q-39 62 -57.5 119t-18.5 129v88q0 295 350 295h5q353 0 350 -295v-192h-226v163q0 123 -122 123q-123 0 -123 -123v-55q0 -59 14 -95t74 -128l190 -293l64 227h217l-129 -460l209 -322h-230l-67 100q-85 -116 -277 -116h-14 q-157 0 -232 75.5t-75 210.5zM307 324q0 -77 23 -110.5t82 -33.5q56 0 80 28t45 97l-228 342q-2 -8 -2 -29v-294z" />
<glyph unicode="'" horiz-adv-x="389" d="M41 885l86 549h242l-197 -549h-131z" />
<glyph unicode="(" horiz-adv-x="565" d="M102 205v1024q0 303 361 303h69v-209h-69q-63 0 -97 -29.5t-34 -101.5v-950q0 -72 34 -101.5t97 -29.5h69v-209h-69q-171 0 -266 73t-95 230z" />
<glyph unicode=")" horiz-adv-x="565" d="M33 -98v209h69q63 0 97 29.5t34 101.5v950q0 72 -34 101.5t-97 29.5h-69v209h69q361 0 361 -303v-1024q0 -157 -95 -230t-266 -73h-69z" />
<glyph unicode="*" horiz-adv-x="700" d="M37 1157l51 158l213 -105l-39 232h178l-41 -232l213 105l52 -160l-234 -39l166 -166l-139 -104l-107 209l-108 -209l-136 104l166 168z" />
<glyph unicode="+" horiz-adv-x="860" d="M86 649v176h256v256h176v-256h256v-176h-256v-256h-176v256h-256z" />
<glyph unicode="," horiz-adv-x="397" d="M82 0v266h233v-205q0 -91 -37.5 -177t-95.5 -154l-88 45q36 50 62.5 111.5t33.5 113.5h-108z" />
<glyph unicode="-" horiz-adv-x="565" d="M41 637v192h483v-192h-483z" />
<glyph unicode="." horiz-adv-x="397" d="M82 0v266h233v-266h-233z" />
<glyph unicode="/" horiz-adv-x="653" d="M0 -98l444 1630h209l-444 -1630h-209z" />
<glyph unicode="0" horiz-adv-x="892" d="M94 287v860q0 303 344 303h17q344 0 344 -303v-860q0 -303 -344 -303h-17q-344 0 -344 303zM324 324q0 -73 30.5 -102t91.5 -29t92 29t31 102v786q0 73 -31 102t-92 29t-91.5 -29t-30.5 -102v-786z" />
<glyph unicode="1" horiz-adv-x="483" d="M123 0v1266q78 81 100 168h129v-1434h-229z" />
<glyph unicode="2" horiz-adv-x="811" d="M70 0v332q0 33 7.5 66t17 59t31 57.5t36 51.5t46 52.5t48 48.5t54 51t52.5 50q56 54 73 70.5t44 49t34 54t7 49.5v139q0 69 -29 96t-83 27t-81.5 -27t-27.5 -96v-208h-225v233q0 156 84 225.5t252 69.5h4q168 0 252 -69.5t84 -225.5v-168q0 -44 -11 -83.5t-23.5 -67 t-43 -63.5t-49 -54.5t-63 -59.5t-64.5 -61q-55 -53 -82.5 -81.5t-58.5 -65.5t-43.5 -66t-12.5 -57v-131h451v-197h-680z" />
<glyph unicode="3" horiz-adv-x="821" d="M61 287v192h230v-168q0 -70 30 -100.5t76 -30.5h15q46 0 76 30.5t30 100.5v224q0 55 -27 82.5t-71 27.5h-174v193h153q119 0 119 131v153q0 70 -30 100.5t-76 30.5h-19q-46 0 -76 -30.5t-30 -100.5v-135h-226v160q0 160 86 231.5t250 71.5h15q164 0 250 -71.5t86 -231.5 v-176q0 -205 -140 -226q44 -9 74 -31t43.5 -53.5t18 -59t4.5 -62.5v-252q0 -303 -316 -303h-55q-316 0 -316 303z" />
<glyph unicode="4" horiz-adv-x="774" d="M16 330v207l332 897h307v-904h103v-200h-103v-330h-229v330h-410zM197 530h229v674z" />
<glyph unicode="5" horiz-adv-x="839" d="M86 279v233h225v-209q0 -69 29 -96t86 -27t86 27t29 96v336q0 69 -26.5 96t-74.5 27q-41 0 -68.5 -20t-47.5 -66l-230 61v697h660v-201h-430v-336q27 31 63.5 47.5t101.5 16.5q129 0 205 -71.5t76 -223.5v-387q0 -155 -86 -225t-254 -70h-4q-168 0 -254 70t-86 225z" />
<glyph unicode="6" horiz-adv-x="860" d="M94 279v876q0 156 82.5 225.5t249.5 69.5h4q167 0 249.5 -69.5t82.5 -225.5v-135h-230v110q0 71 -24.5 97t-79.5 26t-79.5 -26t-24.5 -97v-294q29 31 65.5 47t102.5 16q131 0 206.5 -71.5t75.5 -223.5v-325q0 -155 -85 -225t-253 -70h-4q-168 0 -253 70t-85 225zM324 303 q0 -70 27 -96.5t83 -26.5t83.5 26.5t27.5 96.5v275q0 70 -27 96t-84 26q-110 0 -110 -122v-275z" />
<glyph unicode="7" horiz-adv-x="706" d="M16 1233v201h641v-166l-309 -1268h-227l301 1233h-406z" />
<glyph unicode="8" horiz-adv-x="841" d="M74 287v211q0 219 139 247q-139 21 -139 226v176q0 303 315 303h64q315 0 315 -303v-176q0 -205 -139 -226q139 -28 139 -247v-211q0 -303 -315 -303h-64q-315 0 -315 303zM303 311q0 -67 29 -99t69 -32h39q40 0 69.5 32.5t29.5 98.5v203q0 66 -29.5 98.5t-69.5 32.5h-39 q-40 0 -69 -32t-29 -99v-203zM303 969q0 -67 29 -99t69 -32h39q40 0 69.5 32.5t29.5 98.5v153q0 66 -29.5 98.5t-69.5 32.5h-39q-40 0 -69 -32t-29 -99v-153z" />
<glyph unicode="9" horiz-adv-x="860" d="M86 829v326q0 155 85 225t253 70h4q168 0 253 -70t85 -225v-876q0 -156 -82.5 -225.5t-249.5 -69.5h-4q-167 0 -249.5 69.5t-82.5 225.5v135h230v-111q0 -71 24.5 -97t79.5 -26t80 26t25 97v295q-29 -31 -65.5 -47t-102.5 -16q-131 0 -207 71t-76 223zM315 856 q0 -70 27.5 -96.5t83.5 -26.5q111 0 111 123v274q0 70 -27.5 96.5t-83.5 26.5t-83.5 -26.5t-27.5 -96.5v-274z" />
<glyph unicode=":" horiz-adv-x="397" d="M82 0v266h233v-266h-233zM82 739v267h233v-267h-233z" />
<glyph unicode=";" horiz-adv-x="397" d="M82 0v266h233v-205q0 -91 -37.5 -177t-95.5 -154l-88 45q36 50 62.5 111.5t33.5 113.5h-108zM82 739v267h233v-267h-233z" />
<glyph unicode="&#x3c;" horiz-adv-x="860" d="M119 629l594 -410v246l-422 266l422 266v246l-594 -409v-205z" />
<glyph unicode="=" horiz-adv-x="860" d="M86 475v176h688v-176h-688zM86 815v176h688v-176h-688z" />
<glyph unicode="&#x3e;" horiz-adv-x="860" d="M147 219l594 410v205l-594 409v-246l422 -266l-422 -266v-246z" />
<glyph unicode="?" horiz-adv-x="782" d="M53 922v233q0 156 84 225.5t252 69.5h4q168 0 252 -69.5t84 -225.5v-168q0 -33 -4 -62t-9 -50t-17 -43t-18.5 -33.5t-23 -28.5t-22 -22.5t-24 -21t-21.5 -17.5q-37 -31 -57 -51.5t-40 -58t-20 -77.5v-133h-180v191q0 75 29 136.5t94 123.5q84 79 84 151v139 q0 69 -29.5 96t-83.5 27t-81 -27t-27 -96v-208h-226zM266 0v266h234v-266h-234z" />
<glyph unicode="@" horiz-adv-x="1267" d="M94 176v971q0 157 95 230t266 73h358q171 0 266 -73t95 -230v-653q0 -155 -69.5 -229.5t-182.5 -74.5q-70 0 -110.5 25.5t-51.5 56.5q-10 -38 -65 -66t-117 -28h-5q-81 0 -140.5 51.5t-59.5 157.5v504q0 101 61 155t141 54h5q58 0 103 -28.5t56 -67.5l41 83h113v-688 q0 -40 16.5 -60t44.5 -20q39 0 61.5 44t22.5 112v690q0 158 -198 158h-412q-92 0 -145.5 -38t-53.5 -120v-1007q0 -82 53.5 -120t145.5 -38h494v-127h-480q-348 0 -348 303zM547 424q0 -50 22.5 -70t63.5 -20t63.5 20t22.5 70v430q0 50 -22.5 70t-63.5 20t-63.5 -20 t-22.5 -70v-430z" />
<glyph unicode="A" horiz-adv-x="868" d="M16 0l267 1434h299l270 -1434h-242l-51 319h-262l-51 -319h-230zM328 516h200l-100 637z" />
<glyph unicode="B" horiz-adv-x="903" d="M102 0v1434h375q163 0 253.5 -74t90.5 -209v-180q0 -86 -39.5 -151t-119.5 -75q167 -27 167 -227v-235q0 -134 -96 -208.5t-260 -74.5h-371zM340 205h141q111 0 111 110v215q0 56 -29 83.5t-82 27.5h-141v-436zM340 842h133q111 0 111 110v166q0 56 -29 83.5t-82 27.5 h-133v-387z" />
<glyph unicode="C" horiz-adv-x="905" d="M94 287v860q0 154 95.5 228.5t265.5 74.5h4q170 0 265 -74.5t95 -228.5v-262h-237v225q0 71 -32 101t-93 30t-93 -30t-32 -101v-786q0 -71 32 -101t93 -30t93 30t32 101v260h237v-297q0 -303 -360 -303h-4q-361 0 -361 303z" />
<glyph unicode="D" horiz-adv-x="923" d="M102 0v1434h367q171 0 265.5 -73.5t94.5 -230.5v-827q0 -157 -94.5 -230t-265.5 -73h-367zM340 209h121q63 0 97 29.5t34 101.5v754q0 72 -34 101.5t-97 29.5h-121v-1016z" />
<glyph unicode="E" horiz-adv-x="802" d="M102 0v1434h629v-209h-391v-394h328v-208h-328v-414h397v-209h-635z" />
<glyph unicode="F" horiz-adv-x="755" d="M102 0v1434h621v-209h-383v-404h319v-209h-319v-612h-238z" />
<glyph unicode="G" horiz-adv-x="921" d="M94 287v860q0 154 95.5 228.5t265.5 74.5h16q170 0 265 -74.5t95 -228.5v-205h-237v168q0 72 -34 101.5t-97 29.5t-97 -29.5t-34 -101.5v-786q0 -72 34 -101.5t97 -29.5t97 29.5t34 101.5v213h-139v200h376v-450q0 -303 -360 -303h-16q-361 0 -361 303z" />
<glyph unicode="H" horiz-adv-x="952" d="M102 0v1434h238v-598h272v598h238v-1434h-238v623h-272v-623h-238z" />
<glyph unicode="I" horiz-adv-x="458" d="M111 0v1434h237v-1434h-237z" />
<glyph unicode="J" horiz-adv-x="577" d="M25 0v213h86q63 0 97 29.5t34 101.5v1090h237v-1131q0 -303 -364 -303h-90z" />
<glyph unicode="K" horiz-adv-x="880" d="M102 0v1434h238v-646l270 646h250l-274 -539l299 -895h-242l-197 623l-106 -209v-414h-238z" />
<glyph unicode="L" horiz-adv-x="731" d="M102 0v1434h238v-1221h367v-213h-605z" />
<glyph unicode="M" horiz-adv-x="1218" d="M102 0v1434h226l276 -834l279 834h233v-1434h-229v877l-215 -668h-133l-215 668v-877h-222z" />
<glyph unicode="N" horiz-adv-x="960" d="M102 0v1434h238l301 -887v887h217v-1434h-225l-314 932v-932h-217z" />
<glyph unicode="O" d="M94 287v860q0 303 361 303h16q171 0 265.5 -73t94.5 -230v-860q0 -157 -94.5 -230t-265.5 -73h-16q-171 0 -266 73t-95 230zM332 324q0 -72 34 -101.5t97 -29.5t97 29.5t34 101.5v786q0 72 -34 101.5t-97 29.5t-97 -29.5t-34 -101.5v-786z" />
<glyph unicode="P" horiz-adv-x="882" d="M102 0v1434h371q171 0 266 -73.5t95 -230.5v-272q0 -157 -95 -230t-266 -73h-133v-555h-238zM340 764h125q63 0 97 29.5t34 101.5v199q0 72 -34 101.5t-97 29.5h-125v-461z" />
<glyph unicode="Q" d="M94 287v860q0 303 361 303h16q171 0 265.5 -73t94.5 -230v-860q0 -254 -256 -295v-197h-217v195q-264 41 -264 297zM332 324q0 -72 34 -101.5t97 -29.5t97 29.5t34 101.5v786q0 72 -34 101.5t-97 29.5t-97 -29.5t-34 -101.5v-786z" />
<glyph unicode="R" horiz-adv-x="923" d="M102 0v1434h371q171 0 266 -73.5t95 -230.5v-256q0 -198 -156 -266l205 -608h-242l-182 571h-119v-571h-238zM340 776h125q63 0 97 29.5t34 101.5v187q0 72 -34 101.5t-97 29.5h-125v-449z" />
<glyph unicode="S" horiz-adv-x="856" d="M74 283v249h233v-217q0 -64 33 -95.5t90 -31.5t90 31.5t33 95.5v113q0 56 -20 88.5t-74 61.5l-166 94q-117 67 -168 128.5t-51 166.5v188q0 151 96.5 223t255.5 72h4q159 0 255.5 -72t96.5 -223v-233h-233v200q0 123 -121 123t-121 -123v-98q0 -54 20 -84.5t72 -60.5 l168 -95q117 -66 168 -127t51 -168v-206q0 -159 -91 -229t-263 -70h-4q-172 0 -263 69.5t-91 229.5z" />
<glyph unicode="T" horiz-adv-x="757" d="M20 1225v209h717v-209h-239v-1225h-238v1225h-240z" />
<glyph unicode="U" horiz-adv-x="917" d="M98 287v1147h238v-1110q0 -73 30.5 -102t92.5 -29t92.5 29t30.5 102v1110h237v-1147q0 -303 -356 -303h-8q-172 0 -264.5 71.5t-92.5 231.5z" />
<glyph unicode="V" horiz-adv-x="835" d="M16 1434h242l166 -1063l166 1063h229l-270 -1434h-262z" />
<glyph unicode="W" horiz-adv-x="1314" d="M20 1434h234l119 -1024l184 1024h213l184 -1024l119 1024h221l-225 -1434h-223l-184 983l-185 -983h-231z" />
<glyph unicode="X" horiz-adv-x="866" d="M16 0l281 731l-258 703h246l151 -480l142 480h241l-250 -703l281 -731h-246l-178 524l-168 -524h-242z" />
<glyph unicode="Y" horiz-adv-x="847" d="M16 1434h250l160 -666l160 666h245l-288 -924v-510h-238v510z" />
<glyph unicode="Z" horiz-adv-x="768" d="M41 0v164l422 1073h-397v197h647v-164l-422 -1073h436v-197h-686z" />
<glyph unicode="[" horiz-adv-x="565" d="M102 -98v1630h430v-209h-200v-1212h200v-209h-430z" />
<glyph unicode="\" horiz-adv-x="653" d="M0 1532h209l444 -1630h-209z" />
<glyph unicode="]" horiz-adv-x="565" d="M33 -98v209h200v1212h-200v209h430v-1630h-430z" />
<glyph unicode="^" horiz-adv-x="770" d="M16 717h211l158 508l158 -508h211l-246 717h-246z" />
<glyph unicode="_" horiz-adv-x="745" d="M-10 -82h766v-168h-766v168z" />
<glyph unicode="`" horiz-adv-x="927" d="M205 1835h270l146 -289h-177z" />
<glyph unicode="a" horiz-adv-x="868" d="M16 0l267 1434h299l270 -1434h-242l-51 319h-262l-51 -319h-230zM328 516h200l-100 637z" />
<glyph unicode="b" horiz-adv-x="903" d="M102 0v1434h375q163 0 253.5 -74t90.5 -209v-180q0 -86 -39.5 -151t-119.5 -75q167 -27 167 -227v-235q0 -134 -96 -208.5t-260 -74.5h-371zM340 205h141q111 0 111 110v215q0 56 -29 83.5t-82 27.5h-141v-436zM340 842h133q111 0 111 110v166q0 56 -29 83.5t-82 27.5 h-133v-387z" />
<glyph unicode="c" horiz-adv-x="905" d="M94 287v860q0 154 95.5 228.5t265.5 74.5h4q170 0 265 -74.5t95 -228.5v-262h-237v225q0 71 -32 101t-93 30t-93 -30t-32 -101v-786q0 -71 32 -101t93 -30t93 30t32 101v260h237v-297q0 -303 -360 -303h-4q-361 0 -361 303z" />
<glyph unicode="d" horiz-adv-x="923" d="M102 0v1434h367q171 0 265.5 -73.5t94.5 -230.5v-827q0 -157 -94.5 -230t-265.5 -73h-367zM340 209h121q63 0 97 29.5t34 101.5v754q0 72 -34 101.5t-97 29.5h-121v-1016z" />
<glyph unicode="e" horiz-adv-x="802" d="M102 0v1434h629v-209h-391v-394h328v-208h-328v-414h397v-209h-635z" />
<glyph unicode="f" horiz-adv-x="755" d="M102 0v1434h621v-209h-383v-404h319v-209h-319v-612h-238z" />
<glyph unicode="g" horiz-adv-x="921" d="M94 287v860q0 154 95.5 228.5t265.5 74.5h16q170 0 265 -74.5t95 -228.5v-205h-237v168q0 72 -34 101.5t-97 29.5t-97 -29.5t-34 -101.5v-786q0 -72 34 -101.5t97 -29.5t97 29.5t34 101.5v213h-139v200h376v-450q0 -303 -360 -303h-16q-361 0 -361 303z" />
<glyph unicode="h" horiz-adv-x="952" d="M102 0v1434h238v-598h272v598h238v-1434h-238v623h-272v-623h-238z" />
<glyph unicode="i" horiz-adv-x="458" d="M111 0v1434h237v-1434h-237z" />
<glyph unicode="j" horiz-adv-x="577" d="M25 0v213h86q63 0 97 29.5t34 101.5v1090h237v-1131q0 -303 -364 -303h-90z" />
<glyph unicode="k" horiz-adv-x="880" d="M102 0v1434h238v-646l270 646h250l-274 -539l299 -895h-242l-197 623l-106 -209v-414h-238z" />
<glyph unicode="l" horiz-adv-x="731" d="M102 0v1434h238v-1221h367v-213h-605z" />
<glyph unicode="m" horiz-adv-x="1218" d="M102 0v1434h226l276 -834l279 834h233v-1434h-229v877l-215 -668h-133l-215 668v-877h-222z" />
<glyph unicode="n" horiz-adv-x="960" d="M102 0v1434h238l301 -887v887h217v-1434h-225l-314 932v-932h-217z" />
<glyph unicode="o" d="M94 287v860q0 303 361 303h16q171 0 265.5 -73t94.5 -230v-860q0 -157 -94.5 -230t-265.5 -73h-16q-171 0 -266 73t-95 230zM332 324q0 -72 34 -101.5t97 -29.5t97 29.5t34 101.5v786q0 72 -34 101.5t-97 29.5t-97 -29.5t-34 -101.5v-786z" />
<glyph unicode="p" horiz-adv-x="882" d="M102 0v1434h371q171 0 266 -73.5t95 -230.5v-272q0 -157 -95 -230t-266 -73h-133v-555h-238zM340 764h125q63 0 97 29.5t34 101.5v199q0 72 -34 101.5t-97 29.5h-125v-461z" />
<glyph unicode="q" d="M94 287v860q0 303 361 303h16q171 0 265.5 -73t94.5 -230v-860q0 -254 -256 -295v-197h-217v195q-264 41 -264 297zM332 324q0 -72 34 -101.5t97 -29.5t97 29.5t34 101.5v786q0 72 -34 101.5t-97 29.5t-97 -29.5t-34 -101.5v-786z" />
<glyph unicode="r" horiz-adv-x="923" d="M102 0v1434h371q171 0 266 -73.5t95 -230.5v-256q0 -198 -156 -266l205 -608h-242l-182 571h-119v-571h-238zM340 776h125q63 0 97 29.5t34 101.5v187q0 72 -34 101.5t-97 29.5h-125v-449z" />
<glyph unicode="s" horiz-adv-x="856" d="M74 283v249h233v-217q0 -64 33 -95.5t90 -31.5t90 31.5t33 95.5v113q0 56 -20 88.5t-74 61.5l-166 94q-117 67 -168 128.5t-51 166.5v188q0 151 96.5 223t255.5 72h4q159 0 255.5 -72t96.5 -223v-233h-233v200q0 123 -121 123t-121 -123v-98q0 -54 20 -84.5t72 -60.5 l168 -95q117 -66 168 -127t51 -168v-206q0 -159 -91 -229t-263 -70h-4q-172 0 -263 69.5t-91 229.5z" />
<glyph unicode="t" horiz-adv-x="757" d="M20 1225v209h717v-209h-239v-1225h-238v1225h-240z" />
<glyph unicode="u" horiz-adv-x="917" d="M98 287v1147h238v-1110q0 -73 30.5 -102t92.5 -29t92.5 29t30.5 102v1110h237v-1147q0 -303 -356 -303h-8q-172 0 -264.5 71.5t-92.5 231.5z" />
<glyph unicode="v" horiz-adv-x="835" d="M16 1434h242l166 -1063l166 1063h229l-270 -1434h-262z" />
<glyph unicode="w" horiz-adv-x="1314" d="M20 1434h234l119 -1024l184 1024h213l184 -1024l119 1024h221l-225 -1434h-223l-184 983l-185 -983h-231z" />
<glyph unicode="x" horiz-adv-x="866" d="M16 0l281 731l-258 703h246l151 -480l142 480h241l-250 -703l281 -731h-246l-178 524l-168 -524h-242z" />
<glyph unicode="y" horiz-adv-x="847" d="M16 1434h250l160 -666l160 666h245l-288 -924v-510h-238v510z" />
<glyph unicode="z" horiz-adv-x="768" d="M41 0v164l422 1073h-397v197h647v-164l-422 -1073h436v-197h-686z" />
<glyph unicode="{" horiz-adv-x="630" d="M25 631v186q75 6 109 38.5t34 94.5v279q0 303 360 303h70v-209h-70q-63 0 -97 -29.5t-34 -101.5v-283q0 -73 -36.5 -115.5t-127.5 -68.5q91 -26 127.5 -68.5t36.5 -115.5v-299q0 -72 34 -101.5t97 -29.5h70v-209h-70q-171 0 -265.5 73t-94.5 230v295q0 62 -33.5 93.5 t-109.5 37.5z" />
<glyph unicode="|" horiz-adv-x="503" d="M143 -205v1843h217v-1843h-217z" />
<glyph unicode="}" horiz-adv-x="630" d="M33 -98v209h69q63 0 97 29.5t34 101.5v299q0 73 36.5 115.5t127.5 68.5q-91 26 -127.5 68.5t-36.5 115.5v283q0 72 -34 101.5t-97 29.5h-69v209h69q361 0 361 -303v-279q0 -62 34 -94.5t109 -38.5v-186q-76 -6 -109.5 -37.5t-33.5 -93.5v-295q0 -157 -95 -230t-266 -73 h-69z" />
<glyph unicode="~" horiz-adv-x="811" d="M61 592h164v31q0 51 47 51q28 0 78.5 -23.5t108 -47t102.5 -23.5q77 0 133 59t56 170v51h-168v-31q0 -51 -47 -51q-26 0 -72 23.5t-100 47t-101 23.5q-79 0 -140 -59.5t-61 -169.5v-51z" />
<glyph unicode="&#xa1;" horiz-adv-x="397" d="M80 0v221l31 838h176l30 -840v-219h-237zM82 1167v267h233v-267h-233z" />
<glyph unicode="&#xa2;" horiz-adv-x="843" d="M61 451v532q0 129 67.5 202.5t190.5 92.5v156h211v-156q256 -44 256 -295v-139h-233v102q0 135 -129 135t-129 -135v-459q0 -135 129 -135t129 135v138h233v-174q0 -254 -256 -295v-156h-211v154q-258 41 -258 297z" />
<glyph unicode="&#xa3;" horiz-adv-x="843" d="M23 209q32 16 52.5 32t36 41.5t23.5 51t12.5 73t5.5 93.5t1 125h-117v188h117v334q0 147 79.5 225t239.5 78h4q160 0 240 -78t80 -225v-242h-238v225q0 111 -84 111t-84 -111v-317h209v-188h-209q0 -214 -22 -295t-101 -121h508v-209h-713z" />
<glyph unicode="&#xa5;" horiz-adv-x="847" d="M16 1434h250l160 -666l160 666h245l-233 -746h127v-110h-162l-20 -68v-43h182v-111h-182v-356h-238v356h-207v111h207v43l-20 68h-187v110h152z" />
<glyph unicode="&#xa6;" horiz-adv-x="503" d="M143 -205v778h217v-778h-217zM143 901v737h217v-737h-217z" />
<glyph unicode="&#xa7;" horiz-adv-x="860" d="M76 98v189h233v-156q0 -64 32.5 -95.5t88.5 -31.5t88.5 31.5t32.5 95.5v51q0 54 -45 97t-146 96q-45 24 -64 34.5t-57 33.5t-55 38t-42.5 41t-36.5 49.5t-20 56t-9 68.5v248q9 -15 22 -30t24 -26t31 -25l30 -21t34.5 -21.5t31 -18t34 -18t30.5 -16.5v-35 q0 -54 40.5 -89.5t150.5 -90.5q52 -26 88 -46.5t76 -51.5t64 -62.5t40 -75t16 -94.5v-125q0 -159 -91 -229t-263 -70h-4q-172 0 -263 69.5t-91 229.5zM76 1126v111q0 151 96.5 223t255.5 72h4q159 0 255.5 -72t96.5 -223v-152h-233v119q0 123 -119 123t-119 -123v-41 q0 -54 40.5 -89.5t150.5 -90.5q52 -26 88 -46.5t76 -51.5t64 -62.5t40 -75t16 -94.5v-239q-57 96 -237 174v24q0 54 -45 97t-146 96q-45 24 -64 34.5t-57 33.5t-55 38t-42.5 41t-36.5 49.5t-20 56t-9 68.5z" />
<glyph unicode="&#xa8;" horiz-adv-x="901" d="M172 1546v238h217v-238h-217zM512 1546v238h217v-238h-217z" />
<glyph unicode="&#xa9;" horiz-adv-x="1267" d="M94 287v860q0 157 95 230t266 73h358q171 0 266 -73t95 -230v-860q0 -157 -95 -230t-266 -73h-371q-348 0 -348 303zM229 268q0 -157 199 -157h412q195 0 198 157v897q0 158 -198 158h-412q-92 0 -145.5 -38t-53.5 -120v-897zM375 424v586q0 104 71 156.5t187 52.5h4 q116 0 187 -52.5t71 -156.5v-179h-174v142q0 50 -22.5 70t-63.5 20t-63.5 -20t-22.5 -70v-512q0 -50 22.5 -70t63.5 -20t63.5 20t22.5 70v166h174v-203q0 -108 -70 -158.5t-188 -50.5h-4q-119 0 -188.5 50t-69.5 159z" />
<glyph unicode="&#xaa;" horiz-adv-x="466" d="M45 639v109h377v-109h-377zM45 1008v67q0 72 37 111t100 39q31 0 65 -12t48 -35v100q0 55 -49 55h-23q-49 0 -49 -55v-21h-121v35q0 73 47 111.5t123 38.5h31q74 0 121 -39t47 -111v-434h-121v43q-15 -24 -50.5 -34.5t-68.5 -10.5q-64 0 -100.5 39.5t-36.5 112.5z M172 1016q0 -55 49 -55h25q49 0 49 55v45q0 55 -49 55h-25q-49 0 -49 -55v-45z" />
<glyph unicode="&#xab;" horiz-adv-x="806" d="M20 664l390 -349v240l-201 170l201 170v240l-390 -349v-122zM369 664l389 -349v240l-201 170l201 170v240l-389 -349v-122z" />
<glyph unicode="&#xad;" horiz-adv-x="565" d="M41 637v192h483v-192h-483z" />
<glyph unicode="&#xae;" horiz-adv-x="673" d="M49 840v440q0 82 51.5 124t145.5 42h184q92 0 143.5 -44t51.5 -122v-440q0 -79 -51.5 -123.5t-143.5 -44.5h-190q-90 0 -140.5 44.5t-50.5 123.5zM129 829q0 -38 27.5 -59.5t74.5 -21.5h211q47 0 74 21.5t29 59.5v461q0 38 -27.5 59t-75.5 21h-211q-48 0 -75 -21t-27 -59 v-461zM209 807v504h131q127 0 127 -107v-90q0 -70 -53 -92l71 -215h-86l-63 201h-43v-201h-84zM293 1079h45q45 0 45 47v66q0 45 -45 45h-45v-158z" />
<glyph unicode="&#xaf;" horiz-adv-x="790" d="M164 1567v188h463v-188h-463z" />
<glyph unicode="&#xb0;" horiz-adv-x="575" d="M33 1174q0 131 67.5 203.5t188.5 72.5q120 0 187 -73t67 -203q0 -131 -67 -204t-187 -73q-121 0 -188.5 73t-67.5 204zM156 1174q0 -77 35 -119.5t98 -42.5q62 0 96.5 43t34.5 119t-34.5 118.5t-96.5 42.5q-63 0 -98 -42.5t-35 -118.5z" />
<glyph unicode="&#xb1;" horiz-adv-x="860" d="M86 262v176h688v-176h-688zM86 774v176h256v256h176v-256h256v-176h-256v-256h-176v256h-256z" />
<glyph unicode="&#xb4;" horiz-adv-x="927" d="M307 1546l146 289h270l-240 -289h-176z" />
<glyph unicode="&#xb6;" horiz-adv-x="1218" d="M49 858v272q0 157 95 230.5t266 73.5h706v-1434h-237v1225h-99v-1225h-237v555h-133q-171 0 -266 73t-95 230z" />
<glyph unicode="&#xb7;" horiz-adv-x="397" d="M82 598v266h233v-266h-233z" />
<glyph unicode="&#xb8;" horiz-adv-x="720" d="M164 -131h108q23 0 32 9t9 32v90h181v-98q0 -108 -43 -150.5t-129 -42.5q-77 0 -127 29z" />
<glyph unicode="&#xba;" horiz-adv-x="477" d="M45 639v109h387v-109h-387zM45 1022v250q0 86 49.5 128t128.5 42h33q77 0 126.5 -42t49.5 -128v-250q0 -86 -49.5 -128t-126.5 -42h-33q-79 0 -128.5 42t-49.5 128zM172 1036q0 -75 59 -75h15q59 0 59 75v221q0 76 -59 76h-15q-59 0 -59 -76v-221z" />
<glyph unicode="&#xbb;" horiz-adv-x="806" d="M49 315l389 349v122l-389 349v-240l201 -170l-201 -170v-240zM397 315l389 349v122l-389 349v-240l201 -170l-201 -170v-240z" />
<glyph unicode="&#xbc;" horiz-adv-x="1050" d="M82 565v762q53 55 61 107h99v-869h-160zM127 0l512 1434h127l-512 -1434h-127zM510 195v135l199 538h200v-532h60v-141h-60v-195h-159v195h-240zM643 336h107v311z" />
<glyph unicode="&#xbd;" horiz-adv-x="1083" d="M82 565v762q53 55 61 107h99v-869h-160zM127 0l512 1434h127l-512 -1434h-127zM575 0v207q0 21 5 41.5t10.5 36t19.5 36t21.5 31t28.5 32t28.5 28.5t32.5 30.5t31 28.5q54 50 72 73.5t18 49.5v82q0 34 -12.5 47.5t-43.5 13.5q-28 0 -39.5 -13.5t-11.5 -47.5v-135h-155 v151q0 94 51 139.5t157 45.5h3q107 0 158.5 -45.5t51.5 -139.5v-100q0 -23 -3.5 -43.5t-13.5 -40t-17 -32t-25.5 -32t-27 -28t-33.5 -30.5t-33 -30q-43 -42 -62 -62t-35 -44.5t-16 -44.5v-66h266v-139h-426z" />
<glyph unicode="&#xbe;" horiz-adv-x="1269" d="M82 748v126h160v-110q0 -66 49 -66h10q49 0 49 66v131q0 51 -45 51h-115v139h103q57 0 57 64v90q0 66 -49 66h-12q-49 0 -49 -66v-90h-158v106q0 191 209 191h10q209 0 209 -191v-104q0 -102 -57 -131q57 -29 57 -123v-149q0 -92 -51 -141.5t-148 -49.5h-30 q-97 0 -148 49.5t-51 141.5zM344 0l512 1434h127l-512 -1434h-127zM729 195v135l199 538h200v-532h60v-141h-60v-195h-159v195h-240zM862 336h107v311z" />
<glyph unicode="&#xbf;" horiz-adv-x="782" d="M53 279v167q0 33 4.5 62.5t9.5 50.5t16.5 42.5t18.5 33.5t23.5 29t22 22.5t24 21t21.5 17.5q37 31 56.5 51t39.5 57.5t20 77.5v133h180v-190q0 -75 -29 -137t-93 -123q-84 -79 -84 -152v-139q0 -69 29 -96t83 -27t81.5 27t27.5 96v209h225v-233q0 -156 -84 -225.5 t-252 -69.5h-4q-168 0 -252 69.5t-84 225.5zM283 1167v267h233v-267h-233z" />
<glyph unicode="&#xc0;" horiz-adv-x="868" d="M16 0l267 1434h299l270 -1434h-242l-51 319h-262l-51 -319h-230zM133 1835h270l146 -289h-176zM328 516h200l-100 637z" />
<glyph unicode="&#xc1;" horiz-adv-x="868" d="M16 0l267 1434h299l270 -1434h-242l-51 319h-262l-51 -319h-230zM315 1546l146 289h270l-239 -289h-177zM328 516h200l-100 637z" />
<glyph unicode="&#xc2;" horiz-adv-x="868" d="M16 0l267 1434h299l270 -1434h-242l-51 319h-262l-51 -319h-230zM170 1546l166 289h192l166 -289h-192l-70 142l-70 -142h-192zM328 516h200l-100 637z" />
<glyph unicode="&#xc3;" horiz-adv-x="868" d="M16 0l267 1434h299l270 -1434h-242l-51 319h-262l-51 -319h-230zM119 1554v43q0 109 55 162t129 53q50 0 94 -22t78 -44t60 -22q25 0 38 14.5t13 37.5v30h159v-43q0 -110 -50 -162.5t-122 -52.5q-49 0 -96 22t-85 44t-66 22q-52 0 -52 -51v-31h-155zM328 516h200 l-100 637z" />
<glyph unicode="&#xc4;" horiz-adv-x="868" d="M16 0l267 1434h299l270 -1434h-242l-51 319h-262l-51 -319h-230zM154 1546v238h217v-238h-217zM328 516h200l-100 637zM494 1546v238h217v-238h-217z" />
<glyph unicode="&#xc5;" horiz-adv-x="868" d="M16 0l267 1434h299l270 -1434h-242l-51 319h-262l-51 -319h-230zM254 1692q0 74 49 115.5t129 41.5q78 0 127 -42t49 -115q0 -74 -49 -116t-127 -42q-80 0 -129 42t-49 116zM328 516h200l-100 637zM371 1692q0 -26 16.5 -42t44.5 -16t44 16t16 42t-16 41.5t-44 15.5 t-44.5 -15.5t-16.5 -41.5z" />
<glyph unicode="&#xc6;" horiz-adv-x="1298" d="M4 0l430 1434h793v-209h-391v-394h327v-208h-327v-414h397v-209h-635v319h-262l-90 -319h-242zM391 516h207v709h-6z" />
<glyph unicode="&#xc7;" horiz-adv-x="905" d="M94 287v860q0 154 95.5 228.5t265.5 74.5h4q170 0 265 -74.5t95 -228.5v-262h-237v225q0 71 -32 101t-93 30t-93 -30t-32 -101v-786q0 -71 32 -101t93 -30t93 30t32 101v260h237v-297q0 -270 -280 -299v-86q0 -108 -43 -150.5t-129 -42.5q-77 0 -127 29l-31 131h108 q23 0 32 9t9 32v80q-264 37 -264 297z" />
<glyph unicode="&#xc8;" horiz-adv-x="802" d="M102 0v1434h629v-209h-391v-394h328v-208h-328v-414h397v-209h-635zM115 1835h270l145 -289h-176z" />
<glyph unicode="&#xc9;" horiz-adv-x="802" d="M102 0v1434h629v-209h-391v-394h328v-208h-328v-414h397v-209h-635zM297 1546l145 289h271l-240 -289h-176z" />
<glyph unicode="&#xca;" horiz-adv-x="802" d="M102 0v1434h629v-209h-391v-394h328v-208h-328v-414h397v-209h-635zM152 1546h192l70 142l69 -142h193l-166 289h-193z" />
<glyph unicode="&#xcb;" horiz-adv-x="802" d="M102 0v1434h629v-209h-391v-394h328v-208h-328v-414h397v-209h-635zM135 1546v238h217v-238h-217zM475 1546v238h217v-238h-217z" />
<glyph unicode="&#xcc;" horiz-adv-x="458" d="M-70 1835h271l145 -289h-176zM111 0v1434h237v-1434h-237z" />
<glyph unicode="&#xcd;" horiz-adv-x="458" d="M111 0v1434h237v-1434h-237zM113 1546l145 289h270l-239 -289h-176z" />
<glyph unicode="&#xce;" horiz-adv-x="458" d="M-33 1546h193l69 142l70 -142h193l-166 289h-193zM111 0v1434h237v-1434h-237z" />
<glyph unicode="&#xcf;" horiz-adv-x="458" d="M-49 1546v238h217v-238h-217zM111 0v1434h237v-1434h-237zM291 1546v238h217v-238h-217z" />
<glyph unicode="&#xd0;" horiz-adv-x="944" d="M29 627v204h94v603h366q171 0 266 -73.5t95 -230.5v-827q0 -157 -95 -230t-266 -73h-366v627h-94zM360 209h121q63 0 97 29.5t34 101.5v754q0 72 -34 101.5t-97 29.5h-121v-394h160v-204h-160v-418z" />
<glyph unicode="&#xd1;" horiz-adv-x="960" d="M102 0v1434h238l301 -887v887h217v-1434h-225l-314 932v-932h-217zM172 1554h156v31q0 51 51 51q28 0 66.5 -22t85.5 -44t96 -22q72 0 122 52.5t50 162.5v43h-160v-30q0 -23 -13 -37.5t-38 -14.5q-26 0 -60 22t-78 44t-94 22q-74 0 -129 -53t-55 -162v-43z" />
<glyph unicode="&#xd2;" d="M94 287v860q0 303 361 303h16q171 0 265.5 -73t94.5 -230v-860q0 -157 -94.5 -230t-265.5 -73h-16q-171 0 -266 73t-95 230zM164 1835h270l146 -289h-177zM332 324q0 -72 34 -101.5t97 -29.5t97 29.5t34 101.5v786q0 72 -34 101.5t-97 29.5t-97 -29.5t-34 -101.5v-786z " />
<glyph unicode="&#xd3;" d="M94 287v860q0 303 361 303h16q171 0 265.5 -73t94.5 -230v-860q0 -157 -94.5 -230t-265.5 -73h-16q-171 0 -266 73t-95 230zM332 324q0 -72 34 -101.5t97 -29.5t97 29.5t34 101.5v786q0 72 -34 101.5t-97 29.5t-97 -29.5t-34 -101.5v-786zM346 1546l146 289h270 l-240 -289h-176z" />
<glyph unicode="&#xd4;" d="M94 287v860q0 303 361 303h16q171 0 265.5 -73t94.5 -230v-860q0 -157 -94.5 -230t-265.5 -73h-16q-171 0 -266 73t-95 230zM201 1546h192l70 142l69 -142h193l-166 289h-192zM332 324q0 -72 34 -101.5t97 -29.5t97 29.5t34 101.5v786q0 72 -34 101.5t-97 29.5t-97 -29.5 t-34 -101.5v-786z" />
<glyph unicode="&#xd5;" d="M94 287v860q0 303 361 303h16q171 0 265.5 -73t94.5 -230v-860q0 -157 -94.5 -230t-265.5 -73h-16q-171 0 -266 73t-95 230zM150 1554h155v31q0 51 51 51q28 0 66.5 -22t85.5 -44t96 -22q72 0 122 52.5t50 162.5v43h-160v-30q0 -23 -13 -37.5t-38 -14.5q-26 0 -60 22 t-77.5 44t-93.5 22q-74 0 -129 -53t-55 -162v-43zM332 324q0 -72 34 -101.5t97 -29.5t97 29.5t34 101.5v786q0 72 -34 101.5t-97 29.5t-97 -29.5t-34 -101.5v-786z" />
<glyph unicode="&#xd6;" d="M94 287v860q0 303 361 303h16q171 0 265.5 -73t94.5 -230v-860q0 -157 -94.5 -230t-265.5 -73h-16q-171 0 -266 73t-95 230zM184 1546v238h217v-238h-217zM332 324q0 -72 34 -101.5t97 -29.5t97 29.5t34 101.5v786q0 72 -34 101.5t-97 29.5t-97 -29.5t-34 -101.5v-786z M524 1546v238h217v-238h-217z" />
<glyph unicode="&#xd7;" horiz-adv-x="860" d="M125 557l184 180l-184 181l125 124l180 -184l180 184l125 -124l-184 -181l184 -180l-125 -125l-180 184l-180 -184z" />
<glyph unicode="&#xd8;" d="M94 287v860q0 303 361 303h16q171 0 265.5 -73t94.5 -230v-860q0 -157 -94.5 -230t-265.5 -73h-16q-171 0 -266 73t-95 230zM332 406l186 829q-24 6 -55 6q-63 0 -97 -29.5t-34 -101.5v-704zM408 199q24 -6 55 -6q63 0 97 29.5t34 101.5v704z" />
<glyph unicode="&#xd9;" horiz-adv-x="917" d="M98 287v1147h238v-1110q0 -73 30.5 -102t92.5 -29t92.5 29t30.5 102v1110h237v-1147q0 -303 -356 -303h-8q-172 0 -264.5 71.5t-92.5 231.5zM160 1835h270l145 -289h-176z" />
<glyph unicode="&#xda;" horiz-adv-x="917" d="M98 287v1147h238v-1110q0 -73 30.5 -102t92.5 -29t92.5 29t30.5 102v1110h237v-1147q0 -303 -356 -303h-8q-172 0 -264.5 71.5t-92.5 231.5zM342 1546l145 289h271l-240 -289h-176z" />
<glyph unicode="&#xdb;" horiz-adv-x="917" d="M98 287v1147h238v-1110q0 -73 30.5 -102t92.5 -29t92.5 29t30.5 102v1110h237v-1147q0 -303 -356 -303h-8q-172 0 -264.5 71.5t-92.5 231.5zM197 1546h192l70 142l69 -142h193l-166 289h-193z" />
<glyph unicode="&#xdc;" horiz-adv-x="917" d="M98 287v1147h238v-1110q0 -73 30.5 -102t92.5 -29t92.5 29t30.5 102v1110h237v-1147q0 -303 -356 -303h-8q-172 0 -264.5 71.5t-92.5 231.5zM180 1546v238h217v-238h-217zM520 1546v238h217v-238h-217z" />
<glyph unicode="&#xdd;" horiz-adv-x="847" d="M16 1434h250l160 -666l160 666h245l-288 -924v-510h-238v510zM307 1546l146 289h270l-240 -289h-176z" />
<glyph unicode="&#xde;" horiz-adv-x="882" d="M102 0v1434h238v-267h133q171 0 266 -73t95 -230v-272q0 -157 -95 -230t-266 -73h-133v-289h-238zM340 498h125q63 0 97 29.5t34 101.5v198q0 72 -34 101.5t-97 29.5h-125v-460z" />
<glyph unicode="&#xdf;" horiz-adv-x="1712" d="M74 283v249h233v-217q0 -64 33 -95.5t90 -31.5t90 31.5t33 95.5v113q0 56 -20 88.5t-74 61.5l-166 94q-117 67 -168 128.5t-51 166.5v188q0 151 96.5 223t255.5 72h4q159 0 255.5 -72t96.5 -223v-233h-233v200q0 123 -121 123t-121 -123v-98q0 -54 20 -84.5t72 -60.5 l168 -95q117 -66 168 -127t51 -168v-206q0 -159 -91 -229t-263 -70h-4q-172 0 -263 69.5t-91 229.5zM930 283v249h233v-217q0 -64 33 -95.5t90 -31.5t90 31.5t33 95.5v113q0 56 -20 88.5t-74 61.5l-166 94q-117 67 -168 128.5t-51 166.5v188q0 151 96.5 223t255.5 72h4 q159 0 255.5 -72t96.5 -223v-233h-233v200q0 123 -121 123t-121 -123v-98q0 -54 20 -84.5t72 -60.5l168 -95q117 -66 168 -127t51 -168v-206q0 -159 -91 -229t-263 -70h-4q-172 0 -263 69.5t-91 229.5z" />
<glyph unicode="&#xe0;" horiz-adv-x="868" d="M16 0l267 1434h299l270 -1434h-242l-51 319h-262l-51 -319h-230zM133 1835h270l146 -289h-176zM328 516h200l-100 637z" />
<glyph unicode="&#xe1;" horiz-adv-x="868" d="M16 0l267 1434h299l270 -1434h-242l-51 319h-262l-51 -319h-230zM315 1546l146 289h270l-239 -289h-177zM328 516h200l-100 637z" />
<glyph unicode="&#xe2;" horiz-adv-x="868" d="M16 0l267 1434h299l270 -1434h-242l-51 319h-262l-51 -319h-230zM170 1546l166 289h192l166 -289h-192l-70 142l-70 -142h-192zM328 516h200l-100 637z" />
<glyph unicode="&#xe3;" horiz-adv-x="868" d="M16 0l267 1434h299l270 -1434h-242l-51 319h-262l-51 -319h-230zM119 1554v43q0 109 55 162t129 53q50 0 94 -22t78 -44t60 -22q25 0 38 14.5t13 37.5v30h159v-43q0 -110 -50 -162.5t-122 -52.5q-49 0 -96 22t-85 44t-66 22q-52 0 -52 -51v-31h-155zM328 516h200 l-100 637z" />
<glyph unicode="&#xe4;" horiz-adv-x="868" d="M16 0l267 1434h299l270 -1434h-242l-51 319h-262l-51 -319h-230zM154 1546v238h217v-238h-217zM328 516h200l-100 637zM494 1546v238h217v-238h-217z" />
<glyph unicode="&#xe5;" horiz-adv-x="868" d="M16 0l267 1434h299l270 -1434h-242l-51 319h-262l-51 -319h-230zM254 1692q0 74 49 115.5t129 41.5q78 0 127 -42t49 -115q0 -74 -49 -116t-127 -42q-80 0 -129 42t-49 116zM328 516h200l-100 637zM371 1692q0 -26 16.5 -42t44.5 -16t44 16t16 42t-16 41.5t-44 15.5 t-44.5 -15.5t-16.5 -41.5z" />
<glyph unicode="&#xe6;" horiz-adv-x="1298" d="M4 0l430 1434h793v-209h-391v-394h327v-208h-327v-414h397v-209h-635v319h-262l-90 -319h-242zM391 516h207v709h-6z" />
<glyph unicode="&#xe7;" horiz-adv-x="905" d="M94 287v860q0 154 95.5 228.5t265.5 74.5h4q170 0 265 -74.5t95 -228.5v-262h-237v225q0 71 -32 101t-93 30t-93 -30t-32 -101v-786q0 -71 32 -101t93 -30t93 30t32 101v260h237v-297q0 -270 -280 -299v-86q0 -108 -43 -150.5t-129 -42.5q-77 0 -127 29l-31 131h108 q23 0 32 9t9 32v80q-264 37 -264 297z" />
<glyph unicode="&#xe8;" horiz-adv-x="802" d="M102 0v1434h629v-209h-391v-394h328v-208h-328v-414h397v-209h-635zM115 1835h270l145 -289h-176z" />
<glyph unicode="&#xe9;" horiz-adv-x="802" d="M102 0v1434h629v-209h-391v-394h328v-208h-328v-414h397v-209h-635zM297 1546l145 289h271l-240 -289h-176z" />
<glyph unicode="&#xea;" horiz-adv-x="802" d="M102 0v1434h629v-209h-391v-394h328v-208h-328v-414h397v-209h-635zM152 1546h192l70 142l69 -142h193l-166 289h-193z" />
<glyph unicode="&#xeb;" horiz-adv-x="802" d="M102 0v1434h629v-209h-391v-394h328v-208h-328v-414h397v-209h-635zM135 1546v238h217v-238h-217zM475 1546v238h217v-238h-217z" />
<glyph unicode="&#xec;" horiz-adv-x="458" d="M-70 1835h271l145 -289h-176zM111 0v1434h237v-1434h-237z" />
<glyph unicode="&#xed;" horiz-adv-x="458" d="M111 0v1434h237v-1434h-237zM113 1546l145 289h270l-239 -289h-176z" />
<glyph unicode="&#xee;" horiz-adv-x="458" d="M-33 1546h193l69 142l70 -142h193l-166 289h-193zM111 0v1434h237v-1434h-237z" />
<glyph unicode="&#xef;" horiz-adv-x="458" d="M-49 1546v238h217v-238h-217zM111 0v1434h237v-1434h-237zM291 1546v238h217v-238h-217z" />
<glyph unicode="&#xf0;" horiz-adv-x="944" d="M29 627v204h94v603h366q171 0 266 -73.5t95 -230.5v-827q0 -157 -95 -230t-266 -73h-366v627h-94zM360 209h121q63 0 97 29.5t34 101.5v754q0 72 -34 101.5t-97 29.5h-121v-394h160v-204h-160v-418z" />
<glyph unicode="&#xf1;" horiz-adv-x="960" d="M102 0v1434h238l301 -887v887h217v-1434h-225l-314 932v-932h-217zM172 1554h156v31q0 51 51 51q28 0 66.5 -22t85.5 -44t96 -22q72 0 122 52.5t50 162.5v43h-160v-30q0 -23 -13 -37.5t-38 -14.5q-26 0 -60 22t-78 44t-94 22q-74 0 -129 -53t-55 -162v-43z" />
<glyph unicode="&#xf2;" d="M94 287v860q0 303 361 303h16q171 0 265.5 -73t94.5 -230v-860q0 -157 -94.5 -230t-265.5 -73h-16q-171 0 -266 73t-95 230zM164 1835h270l146 -289h-177zM332 324q0 -72 34 -101.5t97 -29.5t97 29.5t34 101.5v786q0 72 -34 101.5t-97 29.5t-97 -29.5t-34 -101.5v-786z " />
<glyph unicode="&#xf3;" d="M94 287v860q0 303 361 303h16q171 0 265.5 -73t94.5 -230v-860q0 -157 -94.5 -230t-265.5 -73h-16q-171 0 -266 73t-95 230zM332 324q0 -72 34 -101.5t97 -29.5t97 29.5t34 101.5v786q0 72 -34 101.5t-97 29.5t-97 -29.5t-34 -101.5v-786zM346 1546l146 289h270 l-240 -289h-176z" />
<glyph unicode="&#xf4;" d="M94 287v860q0 303 361 303h16q171 0 265.5 -73t94.5 -230v-860q0 -157 -94.5 -230t-265.5 -73h-16q-171 0 -266 73t-95 230zM201 1546h192l70 142l69 -142h193l-166 289h-192zM332 324q0 -72 34 -101.5t97 -29.5t97 29.5t34 101.5v786q0 72 -34 101.5t-97 29.5t-97 -29.5 t-34 -101.5v-786z" />
<glyph unicode="&#xf5;" d="M94 287v860q0 303 361 303h16q171 0 265.5 -73t94.5 -230v-860q0 -157 -94.5 -230t-265.5 -73h-16q-171 0 -266 73t-95 230zM150 1554h155v31q0 51 51 51q28 0 66.5 -22t85.5 -44t96 -22q72 0 122 52.5t50 162.5v43h-160v-30q0 -23 -13 -37.5t-38 -14.5q-26 0 -60 22 t-77.5 44t-93.5 22q-74 0 -129 -53t-55 -162v-43zM332 324q0 -72 34 -101.5t97 -29.5t97 29.5t34 101.5v786q0 72 -34 101.5t-97 29.5t-97 -29.5t-34 -101.5v-786z" />
<glyph unicode="&#xf6;" d="M94 287v860q0 303 361 303h16q171 0 265.5 -73t94.5 -230v-860q0 -157 -94.5 -230t-265.5 -73h-16q-171 0 -266 73t-95 230zM184 1546v238h217v-238h-217zM332 324q0 -72 34 -101.5t97 -29.5t97 29.5t34 101.5v786q0 72 -34 101.5t-97 29.5t-97 -29.5t-34 -101.5v-786z M524 1546v238h217v-238h-217z" />
<glyph unicode="&#xf7;" horiz-adv-x="860" d="M86 649v176h688v-176h-688zM322 260v225h217v-225h-217zM322 989v225h217v-225h-217z" />
<glyph unicode="&#xf8;" d="M94 287v860q0 303 361 303h16q171 0 265.5 -73t94.5 -230v-860q0 -157 -94.5 -230t-265.5 -73h-16q-171 0 -266 73t-95 230zM332 406l186 829q-24 6 -55 6q-63 0 -97 -29.5t-34 -101.5v-704zM408 199q24 -6 55 -6q63 0 97 29.5t34 101.5v704z" />
<glyph unicode="&#xf9;" horiz-adv-x="917" d="M98 287v1147h238v-1110q0 -73 30.5 -102t92.5 -29t92.5 29t30.5 102v1110h237v-1147q0 -303 -356 -303h-8q-172 0 -264.5 71.5t-92.5 231.5zM160 1835h270l145 -289h-176z" />
<glyph unicode="&#xfa;" horiz-adv-x="917" d="M98 287v1147h238v-1110q0 -73 30.5 -102t92.5 -29t92.5 29t30.5 102v1110h237v-1147q0 -303 -356 -303h-8q-172 0 -264.5 71.5t-92.5 231.5zM342 1546l145 289h271l-240 -289h-176z" />
<glyph unicode="&#xfb;" horiz-adv-x="917" d="M98 287v1147h238v-1110q0 -73 30.5 -102t92.5 -29t92.5 29t30.5 102v1110h237v-1147q0 -303 -356 -303h-8q-172 0 -264.5 71.5t-92.5 231.5zM197 1546h192l70 142l69 -142h193l-166 289h-193z" />
<glyph unicode="&#xfc;" horiz-adv-x="917" d="M98 287v1147h238v-1110q0 -73 30.5 -102t92.5 -29t92.5 29t30.5 102v1110h237v-1147q0 -303 -356 -303h-8q-172 0 -264.5 71.5t-92.5 231.5zM180 1546v238h217v-238h-217zM520 1546v238h217v-238h-217z" />
<glyph unicode="&#xfd;" horiz-adv-x="847" d="M16 1434h250l160 -666l160 666h245l-288 -924v-510h-238v510zM307 1546l146 289h270l-240 -289h-176z" />
<glyph unicode="&#xfe;" horiz-adv-x="882" d="M102 0v1434h238v-267h133q171 0 266 -73t95 -230v-272q0 -157 -95 -230t-266 -73h-133v-289h-238zM340 498h125q63 0 97 29.5t34 101.5v198q0 72 -34 101.5t-97 29.5h-125v-460z" />
<glyph unicode="&#xff;" horiz-adv-x="847" d="M16 1434h250l160 -666l160 666h245l-288 -924v-510h-238v510zM145 1546v238h217v-238h-217zM485 1546v238h217v-238h-217z" />
<glyph unicode="&#x152;" horiz-adv-x="1284" d="M94 303v827q0 157 95 230.5t266 73.5h757v-209h-391v-394h328v-208h-328v-414h398v-209h-764q-171 0 -266 73t-95 230zM332 340q0 -72 34 -101.5t97 -29.5h121v1016h-121q-63 0 -97 -29.5t-34 -101.5v-754z" />
<glyph unicode="&#x153;" horiz-adv-x="1284" d="M94 303v827q0 157 95 230.5t266 73.5h757v-209h-391v-394h328v-208h-328v-414h398v-209h-764q-171 0 -266 73t-95 230zM332 340q0 -72 34 -101.5t97 -29.5h121v1016h-121q-63 0 -97 -29.5t-34 -101.5v-754z" />
<glyph unicode="&#x178;" horiz-adv-x="847" d="M16 1434h250l160 -666l160 666h245l-288 -924v-510h-238v510zM145 1546v238h217v-238h-217zM485 1546v238h217v-238h-217z" />
<glyph unicode="&#x2c6;" horiz-adv-x="892" d="M184 1546h193l69 142l70 -142h193l-166 289h-193z" />
<glyph unicode="&#x2dc;" horiz-adv-x="995" d="M184 1554h156v31q0 51 51 51q28 0 66.5 -22t85.5 -44t96 -22q72 0 122 52.5t50 162.5v43h-160v-30q0 -23 -13 -37.5t-38 -14.5q-26 0 -60 22t-77.5 44t-93.5 22q-74 0 -129.5 -53t-55.5 -162v-43z" />
<glyph unicode="&#x2000;" horiz-adv-x="924" />
<glyph unicode="&#x2001;" horiz-adv-x="1849" />
<glyph unicode="&#x2002;" horiz-adv-x="924" />
<glyph unicode="&#x2003;" horiz-adv-x="1849" />
<glyph unicode="&#x2004;" horiz-adv-x="616" />
<glyph unicode="&#x2005;" horiz-adv-x="462" />
<glyph unicode="&#x2006;" horiz-adv-x="308" />
<glyph unicode="&#x2007;" horiz-adv-x="308" />
<glyph unicode="&#x2008;" horiz-adv-x="231" />
<glyph unicode="&#x2009;" horiz-adv-x="369" />
<glyph unicode="&#x200a;" horiz-adv-x="102" />
<glyph unicode="&#x2010;" horiz-adv-x="565" d="M41 637v192h483v-192h-483z" />
<glyph unicode="&#x2011;" horiz-adv-x="565" d="M41 637v192h483v-192h-483z" />
<glyph unicode="&#x2012;" horiz-adv-x="565" d="M41 637v192h483v-192h-483z" />
<glyph unicode="&#x2013;" horiz-adv-x="729" d="M41 639v188h647v-188h-647z" />
<glyph unicode="&#x2014;" horiz-adv-x="1036" d="M41 637v192h954v-192h-954z" />
<glyph unicode="&#x2018;" horiz-adv-x="397" d="M82 918v204q0 91 37.5 177.5t95.5 154.5l88 -45q-36 -50 -62.5 -111.5t-33.5 -113.5h108v-266h-233z" />
<glyph unicode="&#x2019;" horiz-adv-x="397" d="M82 1167v267h233v-205q0 -91 -37.5 -177.5t-95.5 -154.5l-88 45q36 50 62.5 111.5t33.5 113.5h-108z" />
<glyph unicode="&#x201a;" horiz-adv-x="397" d="M82 0v266h233v-205q0 -91 -37.5 -177t-95.5 -154l-88 45q36 50 62.5 111.5t33.5 113.5h-108z" />
<glyph unicode="&#x201c;" horiz-adv-x="704" d="M82 918v204q0 91 37.5 177.5t95.5 154.5l88 -45q-36 -50 -62.5 -111.5t-33.5 -113.5h108v-266h-233zM389 918v204q0 91 37.5 177.5t95.5 154.5l88 -45q-36 -50 -62.5 -111.5t-33.5 -113.5h109v-266h-234z" />
<glyph unicode="&#x201d;" horiz-adv-x="704" d="M82 1167v267h233v-205q0 -91 -37.5 -177.5t-95.5 -154.5l-88 45q36 50 62.5 111.5t33.5 113.5h-108zM389 1167v267h234v-205q0 -90 -38 -177t-96 -155l-88 45q81 114 97 225h-109z" />
<glyph unicode="&#x201e;" horiz-adv-x="704" d="M82 0v266h233v-205q0 -91 -37.5 -177t-95.5 -154l-88 45q36 50 62.5 111.5t33.5 113.5h-108zM389 0v266h234v-205q0 -90 -38 -176.5t-96 -154.5l-88 45q81 114 97 225h-109z" />
<glyph unicode="&#x2022;" horiz-adv-x="604" d="M131 729q0 95 42 135.5t130 40.5q86 0 128 -40.5t42 -135.5t-42 -135.5t-128 -40.5q-88 0 -130 40.5t-42 135.5z" />
<glyph unicode="&#x2026;" horiz-adv-x="1245" d="M82 0v266h233v-266h-233zM506 0v266h233v-266h-233zM930 0v266h233v-266h-233z" />
<glyph unicode="&#x202f;" horiz-adv-x="369" />
<glyph unicode="&#x2039;" horiz-adv-x="458" d="M20 664l390 -349v240l-201 170l201 170v240l-390 -349v-122z" />
<glyph unicode="&#x203a;" horiz-adv-x="458" d="M49 315l389 349v122l-389 349v-240l201 -170l-201 -170v-240z" />
<glyph unicode="&#x205f;" horiz-adv-x="462" />
<glyph unicode="&#x20ac;" d="M8 567v111h107v110h-107v111h107v248q0 154 95 228.5t265 74.5h4q170 0 265.5 -74.5t95.5 -228.5v-262h-238v225q0 71 -32 101t-93 30t-93 -30t-32 -101v-211h195v-111h-195v-110h195v-111h-195v-243q0 -71 32 -101t93 -30t93 30t32 101v260h238v-297q0 -303 -361 -303 h-4q-360 0 -360 303v280h-107z" />
<glyph unicode="&#x2122;" horiz-adv-x="792" d="M29 1346v88h276v-88h-88v-465h-100v465h-88zM354 881v553h90l105 -322l100 322h94v-553h-94v301l-74 -221h-53l-73 221v-301h-95z" />
<glyph unicode="&#x25fc;" horiz-adv-x="1433" d="M0 0v1434h1434v-1434h-1434z" />
</font>
</defs>
</svg>
